<svg width="293" height="36" viewBox="0 0 293 36" fill="none" xmlns="http://www.w3.org/2000/svg">
<path d="M20.8604 17.72C22.8124 18.136 24.3804 19.112 25.5644 20.648C26.7484 22.152 27.3404 23.88 27.3404 25.832C27.3404 28.648 26.3484 30.888 24.3644 32.552C22.4124 34.184 19.6764 35 16.1564 35H0.460375V1.304H15.6284C19.0524 1.304 21.7244 2.088 23.6444 3.656C25.5964 5.224 26.5724 7.352 26.5724 10.04C26.5724 12.024 26.0444 13.672 24.9884 14.984C23.9644 16.296 22.5884 17.208 20.8604 17.72ZM8.66838 14.936H14.0444C15.3884 14.936 16.4124 14.648 17.1164 14.072C17.8524 13.464 18.2204 12.584 18.2204 11.432C18.2204 10.28 17.8524 9.4 17.1164 8.792C16.4124 8.184 15.3884 7.88 14.0444 7.88H8.66838V14.936ZM14.7164 28.376C16.0924 28.376 17.1484 28.072 17.8844 27.464C18.6524 26.824 19.0364 25.912 19.0364 24.728C19.0364 23.544 18.6364 22.616 17.8364 21.944C17.0684 21.272 15.9964 20.936 14.6204 20.936H8.66838V28.376H14.7164ZM40.309 28.664H51.061V35H32.101V1.304H40.309V28.664ZM75.952 29.048H63.376L61.36 35H52.768L64.96 1.304H74.464L86.656 35H77.968L75.952 29.048ZM73.84 22.712L69.664 10.376L65.536 22.712H73.84ZM88.9746 18.104C88.9746 14.776 89.6946 11.816 91.1346 9.224C92.5746 6.6 94.5746 4.568 97.1346 3.128C99.7266 1.656 102.655 0.919998 105.919 0.919998C109.919 0.919998 113.343 1.976 116.191 4.088C119.039 6.2 120.943 9.08 121.903 12.728H112.879C112.207 11.32 111.247 10.248 109.999 9.512C108.783 8.776 107.391 8.408 105.823 8.408C103.295 8.408 101.247 9.288 99.6786 11.048C98.1106 12.808 97.3266 15.16 97.3266 18.104C97.3266 21.048 98.1106 23.4 99.6786 25.16C101.247 26.92 103.295 27.8 105.823 27.8C107.391 27.8 108.783 27.432 109.999 26.696C111.247 25.96 112.207 24.888 112.879 23.48H121.903C120.943 27.128 119.039 30.008 116.191 32.12C113.343 34.2 109.919 35.24 105.919 35.24C102.655 35.24 99.7266 34.52 97.1346 33.08C94.5746 31.608 92.5746 29.576 91.1346 26.984C89.6946 24.392 88.9746 21.432 88.9746 18.104ZM146.465 35L135.137 20.12V35H126.929V1.304H135.137V16.088L146.369 1.304H156.017L142.961 17.816L156.497 35H146.465ZM195.434 34.952H191.594V17.288L193.034 14.888H190.874L184.97 28.28H182.186L176.474 14.888H174.314L175.754 17.288V34.952H171.914V11.48H178.778L183.53 22.712H184.01L188.762 11.48H195.434V34.952ZM224.23 35H220.39V28.28H207.91V35H204.07V14.84C204.07 13.912 204.39 13.128 205.03 12.488C205.702 11.816 206.502 11.48 207.43 11.48H224.23V35ZM220.39 24.92V14.84H207.91V27.8L210.79 24.92H220.39ZM252.771 35H248.931V32.12L246.051 35H235.971C235.075 35 234.291 34.664 233.619 33.992C232.947 33.32 232.611 32.536 232.611 31.64V14.84C232.611 13.944 232.947 13.16 233.619 12.488C234.291 11.816 235.075 11.48 235.971 11.48H252.771V14.84H236.451V31.64H248.931V24.92H242.691L246.051 21.56H252.771V35ZM264.066 35H260.226V11.48H264.066V35ZM292.615 31.64C292.615 32.568 292.279 33.368 291.607 34.04C290.967 34.68 290.183 35 289.255 35H275.815C274.887 35 274.087 34.68 273.415 34.04C272.775 33.368 272.455 32.568 272.455 31.64V14.84C272.455 13.912 272.775 13.128 273.415 12.488C274.087 11.816 274.887 11.48 275.815 11.48H289.255C290.183 11.48 290.967 11.816 291.607 12.488C292.279 13.128 292.615 13.912 292.615 14.84V18.2H288.775V14.84H276.295V31.64H288.775V28.28H292.615V31.64Z" fill="white"/>
</svg>
