<svg width="340" height="284" viewBox="0 0 340 284" fill="none" xmlns="http://www.w3.org/2000/svg">
<path d="M310.752 130.887C310.752 165.691 285.87 179.698 254.876 162.296C223.882 144.894 199 102.874 199 68.0703C199 33.2663 223.882 19.2598 254.876 36.6618C285.87 54.0638 310.752 96.0833 310.752 130.887Z" fill="url(#paint0_linear_1119_33)"/>
<path d="M305.077 127.492C305.077 158.9 282.378 171.209 254.876 155.929C226.938 140.225 204.675 102.45 204.675 71.0413C204.675 39.6328 227.375 27.324 254.876 42.6038C282.814 58.3081 305.077 96.5076 305.077 127.492Z" fill="url(#paint1_linear_1119_33)"/>
<path d="M284.124 20.1086C268.409 11.1954 254.44 10.7709 244.399 16.2886L215.588 32.4173C225.629 26.8996 239.598 27.7485 254.876 36.2373C285.87 53.6393 310.752 95.6588 310.752 130.463C310.752 147.865 304.641 159.749 294.601 165.691L323.412 149.563C333.452 144.045 340 131.736 340 114.334C340 79.9545 314.681 37.5106 284.124 20.1086Z" fill="url(#paint2_linear_1119_33)"/>
<path d="M254.876 124.945C249.201 121.55 243.963 117.305 239.161 111.788V97.7811C242.217 101.177 245.272 104.148 248.765 107.119C252.257 110.09 255.313 112.212 257.932 113.91C260.115 115.183 261.424 115.608 262.734 115.608C263.607 115.608 264.043 114.759 264.043 113.485C264.043 112.636 263.607 111.363 263.17 110.514C262.297 109.665 261.424 107.968 259.678 106.27C257.932 104.572 255.749 102.45 253.13 99.4788C250.074 96.5078 247.455 93.5367 245.272 90.5656C243.526 88.019 241.78 85.0479 240.907 82.5013C240.034 79.9546 239.598 76.9836 239.598 74.0125C239.598 69.3436 240.907 66.3726 243.526 65.5237C246.146 64.2504 250.074 65.0993 255.313 67.2215V57.8838L263.17 62.1282V72.3147C267.972 75.2858 273.211 79.5302 278.449 85.0479L274.084 94.3856C268.845 88.8679 264.043 84.6235 260.115 82.5013C257.932 81.2279 256.622 80.8035 255.749 80.8035C254.876 80.8035 254.44 81.6524 254.44 82.5013C254.44 83.3501 254.876 84.199 255.313 85.4723C255.749 86.3212 257.059 87.5945 258.368 89.2923C259.678 90.9901 261.861 92.6878 264.48 95.2344C269.718 100.328 273.647 104.572 275.83 108.817C278.012 112.636 279.322 116.881 279.322 121.125C279.322 125.794 278.012 128.765 275.393 130.463C272.774 131.736 268.845 131.736 263.607 129.19V140.225L255.749 135.981V124.945H254.876Z" fill="#E1A2D4"/>
<path d="M250.947 124.945C245.272 121.55 240.034 117.305 235.232 111.788V97.7811C238.288 101.177 241.344 104.148 244.836 107.119C248.328 110.09 251.384 112.212 254.003 113.91C256.186 115.183 257.495 115.608 258.805 115.608C259.678 115.608 260.115 114.759 260.115 113.485C260.115 112.636 259.678 111.363 259.241 110.514C258.368 109.665 257.495 107.968 255.749 106.27C254.003 104.572 251.82 102.45 249.201 99.4788C246.145 96.5078 243.526 93.5367 241.344 90.5656C239.598 88.019 237.851 85.0479 236.978 82.5013C236.105 79.9546 235.669 76.9836 235.669 74.0125C235.669 69.3436 236.978 66.3726 239.598 65.5237C242.217 64.2504 246.145 65.0993 251.384 67.2215V57.8838L259.241 62.1282V72.3147C264.043 75.2858 269.282 79.5302 274.52 85.0479L270.155 94.3856C264.916 88.8679 260.115 84.6235 256.186 82.5013C254.003 81.2279 252.693 80.8035 251.82 80.8035C250.947 80.8035 250.511 81.6524 250.511 82.5013C250.511 83.3501 250.947 84.199 251.384 85.4723C251.82 86.3212 253.13 87.5945 254.44 89.2923C255.749 90.9901 257.932 92.6878 260.551 95.2344C265.789 100.328 269.718 104.572 271.901 108.817C274.084 112.636 275.393 116.881 275.393 121.125C275.393 125.794 274.084 128.765 271.464 130.463C268.845 131.736 264.916 131.736 259.678 129.19V140.225L250.947 135.981V124.945Z" fill="#EDCAD7"/>
<path d="M103.912 109.613C103.912 141.996 80.8203 154.949 51.9559 138.973C23.0915 122.566 0 83.7072 0 51.3247C0 18.9423 23.0915 5.98932 51.9559 21.9647C80.8203 38.3718 103.912 77.6625 103.912 109.613Z" fill="url(#paint3_linear_1119_33)"/>
<path d="M98.5831 106.591C98.5831 135.519 77.7119 147.177 51.9559 132.929C26.2 118.68 5.32883 83.2755 5.32883 54.3471C5.32883 25.4188 26.2 13.3294 51.9559 28.0094C77.7119 42.6895 98.5831 77.6625 98.5831 106.591Z" fill="url(#paint4_linear_1119_33)"/>
<path d="M79.044 6.85295C64.8339 -1.35061 51.5118 -1.78237 42.1864 3.39882L15.5424 18.5106C24.8678 13.3294 37.7457 14.193 51.9559 21.9648C80.8203 37.9401 103.912 77.2308 103.912 109.613C103.912 125.589 98.139 136.815 88.8135 142.427L115.458 127.316C124.783 122.134 131 110.909 131 94.5014C131 62.119 107.908 23.2601 79.044 6.85295Z" fill="url(#paint5_linear_1119_33)"/>
<path d="M51.9559 104C46.6271 100.978 41.7423 96.6601 37.3016 91.9106V78.9577C39.9661 81.98 43.0745 85.0024 46.183 87.593C49.2915 90.6153 51.9559 92.3424 54.6203 93.6377C56.3966 94.933 58.1728 95.3648 59.061 95.3648C59.9491 95.3648 60.3932 94.5013 60.3932 93.6377C60.3932 92.7742 59.9491 91.9107 59.505 91.0471C59.061 90.1836 57.7288 88.8883 56.3966 87.1612C55.0644 85.4342 52.844 83.2753 50.1796 80.6847C47.0711 77.6624 44.8508 75.0718 43.0745 72.4812C41.2983 69.8906 39.9661 67.3 39.0779 65.1412C38.1898 62.9823 37.7457 60.3917 37.7457 57.3694C37.7457 53.0517 39.0779 50.4611 41.2983 49.1658C43.9627 48.3023 47.5152 48.7341 52.4 50.8929V42.2576L59.505 46.1435V54.7788C63.9457 57.8011 68.8305 61.687 73.7152 66.4365L69.7186 75.5035C64.8338 70.3224 60.3932 66.4365 56.3966 64.2776C54.6203 63.4141 53.2881 62.5506 52.4 62.9823C51.5118 62.9823 51.0677 63.4141 51.0677 64.7094C51.0677 65.5729 51.5118 66.4365 51.9559 67.3C52.4 68.1635 53.2881 69.4588 54.6203 70.7541C55.9525 72.0494 57.7288 74.2083 60.3932 76.3671C65.2779 81.1165 68.8305 85.0024 71.0508 88.8883C73.2711 92.3424 74.1593 96.2283 74.1593 100.114C74.1593 104.432 72.8271 107.454 70.6067 108.75C67.9423 110.045 64.3898 109.613 59.9491 107.886V118.68L51.9559 114.362V104Z" fill="#E1A2D4"/>
<path d="M48.4034 104C43.0745 100.978 38.1898 96.6601 33.7491 91.9106V78.9577C36.4135 81.98 39.522 85.0024 42.6305 87.593C45.7389 90.6153 48.4034 92.3424 51.0678 93.6377C52.844 94.933 54.6203 95.3648 55.5084 95.3648C56.3966 95.3648 56.8406 94.5013 56.8406 93.6377C56.8406 92.7742 56.3966 91.9107 55.9525 91.0471C55.5084 90.1836 54.1762 88.8883 52.844 87.1612C51.5118 85.4342 49.2915 83.2753 46.6271 80.6847C43.5186 77.6624 41.2983 75.0718 39.522 72.4812C37.7457 69.8906 36.4135 67.3 35.5254 65.1412C34.6373 62.9823 34.1932 60.3917 34.1932 57.3694C34.1932 53.0517 35.5254 50.4611 37.7457 49.1658C40.4101 48.3023 43.9627 48.7341 48.8474 50.8929V42.2576L55.9525 46.1435V54.7788C60.3932 57.8011 65.2779 61.687 70.1627 66.4365L66.1661 75.5035C61.2813 70.3224 56.8406 66.4365 52.844 64.2776C51.0678 63.4141 49.7356 62.5506 48.8474 62.9823C47.9593 62.9823 47.5152 63.4141 47.5152 64.7094C47.5152 65.5729 47.9593 66.4365 48.4034 67.3C48.8474 68.1635 49.7356 69.4588 51.0678 70.7541C52.4 72.0494 54.1762 74.2083 56.8406 76.3671C61.7254 81.1165 65.2779 85.0024 67.4983 88.8883C69.7186 92.3424 70.6067 96.2283 70.6067 100.114C70.6067 104.432 69.2745 107.454 67.0542 108.75C64.3898 110.045 60.8373 109.613 56.3966 107.886V118.68L48.4034 114.362V104Z" fill="#EDCAD7"/>
<path d="M213.397 250.06C213.397 279.774 192.153 291.732 165.692 276.875C139.231 262.018 117.988 226.144 117.988 196.43C117.988 166.716 139.231 154.758 165.692 169.615C192.153 184.472 213.397 220.346 213.397 250.06Z" fill="url(#paint6_linear_1119_33)"/>
<path d="M208.552 247.161C208.552 273.976 189.172 284.484 165.692 271.439C141.84 258.032 122.833 225.781 122.833 198.966C122.833 172.151 142.213 161.643 165.692 174.688C189.545 188.095 208.552 220.708 208.552 247.161Z" fill="url(#paint7_linear_1119_33)"/>
<path d="M190.663 155.482C177.246 147.873 165.32 147.51 156.748 152.221L132.15 165.991C140.722 161.28 152.648 162.005 165.692 169.252C192.153 184.109 213.397 219.983 213.397 249.697C213.397 264.554 208.179 274.7 199.607 279.774L224.205 266.004C232.777 261.293 238.367 250.784 238.367 235.927C238.367 206.576 216.751 170.339 190.663 155.482Z" fill="url(#paint8_linear_1119_33)"/>
<path d="M165.692 244.987C160.847 242.088 156.375 238.464 152.276 233.753V221.795C154.884 224.694 157.493 227.231 160.475 229.767C163.456 232.304 166.065 234.116 168.301 235.565C170.165 236.652 171.283 237.015 172.401 237.015C173.146 237.015 173.519 236.29 173.519 235.203C173.519 234.478 173.146 233.391 172.774 232.666C172.028 231.941 171.283 230.492 169.792 229.043C168.301 227.593 166.438 225.781 164.202 223.245C161.593 220.708 159.357 218.172 157.493 215.635C156.003 213.461 154.512 210.924 153.766 208.75C153.021 206.576 152.648 204.039 152.648 201.503C152.648 197.517 153.766 194.98 156.003 194.255C158.239 193.168 161.593 193.893 166.065 195.705V187.733L172.774 191.357V200.053C176.873 202.59 181.345 206.214 185.818 210.924L182.091 218.896C177.619 214.186 173.519 210.562 170.165 208.75C168.301 207.663 167.183 207.301 166.438 207.301C165.692 207.301 165.32 208.025 165.32 208.75C165.32 209.475 165.692 210.2 166.065 211.287C166.438 212.011 167.556 213.098 168.674 214.548C169.792 215.997 171.655 217.447 173.892 219.621C178.364 223.969 181.718 227.593 183.582 231.217C185.445 234.478 186.563 238.102 186.563 241.725C186.563 245.711 185.445 248.248 183.209 249.697C180.973 250.784 177.619 250.784 173.146 248.61V258.032L166.438 254.408V244.987H165.692Z" fill="#E1A2D4"/>
<path d="M162.338 244.987C157.493 242.088 153.021 238.464 148.921 233.753V221.795C151.53 224.694 154.139 227.231 157.121 229.767C160.102 232.304 162.711 234.116 164.947 235.565C166.811 236.652 167.929 237.015 169.047 237.015C169.792 237.015 170.165 236.29 170.165 235.203C170.165 234.478 169.792 233.391 169.419 232.666C168.674 231.941 167.929 230.492 166.438 229.043C164.947 227.593 163.084 225.781 160.847 223.245C158.239 220.708 156.003 218.172 154.139 215.635C152.648 213.461 151.158 210.924 150.412 208.75C149.667 206.576 149.294 204.039 149.294 201.503C149.294 197.517 150.412 194.98 152.648 194.255C154.884 193.168 158.239 193.893 162.711 195.705V187.733L169.419 191.357V200.053C173.519 202.59 177.991 206.214 182.464 210.924L178.737 218.896C174.264 214.186 170.165 210.562 166.811 208.75C164.947 207.663 163.829 207.301 163.084 207.301C162.338 207.301 161.966 208.025 161.966 208.75C161.966 209.475 162.338 210.2 162.711 211.287C163.084 212.011 164.202 213.098 165.32 214.548C166.438 215.997 168.301 217.447 170.537 219.621C175.01 223.969 178.364 227.593 180.227 231.217C182.091 234.478 183.209 238.102 183.209 241.725C183.209 245.711 182.091 248.248 179.855 249.697C177.619 250.784 174.264 250.784 169.792 248.61V258.032L162.338 254.408V244.987Z" fill="#EDCAD7"/>
<defs>
<linearGradient id="paint0_linear_1119_33" x1="238.644" y1="16.7692" x2="269.175" y2="181.02" gradientUnits="userSpaceOnUse">
<stop stop-color="#F4E0DF"/>
<stop offset="0.2845" stop-color="#F2D9DD"/>
<stop offset="0.6999" stop-color="#ECC5D9"/>
<stop offset="0.9996" stop-color="#E6B3D5"/>
</linearGradient>
<linearGradient id="paint1_linear_1119_33" x1="209.972" y1="40.7745" x2="300.816" y2="166.17" gradientUnits="userSpaceOnUse">
<stop offset="0.0457207" stop-color="#E9C0D4"/>
<stop offset="0.5631" stop-color="#D580A5"/>
<stop offset="1" stop-color="#E1A2D4"/>
</linearGradient>
<linearGradient id="paint2_linear_1119_33" x1="276.867" y1="94.0714" x2="274.522" y2="154.347" gradientUnits="userSpaceOnUse">
<stop stop-color="#EDCAD7"/>
<stop offset="0.4485" stop-color="#EBC3D6"/>
<stop offset="0.9996" stop-color="#E6B3D5"/>
</linearGradient>
<linearGradient id="paint3_linear_1119_33" x1="36.8781" y1="3.6975" x2="65.2704" y2="156.442" gradientUnits="userSpaceOnUse">
<stop stop-color="#F4E0DF"/>
<stop offset="0.2845" stop-color="#F2D9DD"/>
<stop offset="0.6999" stop-color="#ECC5D9"/>
<stop offset="0.9996" stop-color="#E6B3D5"/>
</linearGradient>
<linearGradient id="paint4_linear_1119_33" x1="10.2149" y1="26.0211" x2="94.6952" y2="142.633" gradientUnits="userSpaceOnUse">
<stop offset="0.0457207" stop-color="#E9C0D4"/>
<stop offset="0.5631" stop-color="#D580A5"/>
<stop offset="1" stop-color="#E1A2D4"/>
</linearGradient>
<linearGradient id="paint5_linear_1119_33" x1="72.423" y1="75.5849" x2="70.2432" y2="131.638" gradientUnits="userSpaceOnUse">
<stop stop-color="#EDCAD7"/>
<stop offset="0.4485" stop-color="#EBC3D6"/>
<stop offset="0.9996" stop-color="#E6B3D5"/>
</linearGradient>
<linearGradient id="paint6_linear_1119_33" x1="151.834" y1="152.631" x2="177.9" y2="292.861" gradientUnits="userSpaceOnUse">
<stop stop-color="#F4E0DF"/>
<stop offset="0.2845" stop-color="#F2D9DD"/>
<stop offset="0.6999" stop-color="#ECC5D9"/>
<stop offset="0.9996" stop-color="#E6B3D5"/>
</linearGradient>
<linearGradient id="paint7_linear_1119_33" x1="127.356" y1="173.126" x2="204.914" y2="280.183" gradientUnits="userSpaceOnUse">
<stop offset="0.0457207" stop-color="#E9C0D4"/>
<stop offset="0.5631" stop-color="#D580A5"/>
<stop offset="1" stop-color="#E1A2D4"/>
</linearGradient>
<linearGradient id="paint8_linear_1119_33" x1="184.467" y1="218.628" x2="182.465" y2="270.088" gradientUnits="userSpaceOnUse">
<stop stop-color="#EDCAD7"/>
<stop offset="0.4485" stop-color="#EBC3D6"/>
<stop offset="0.9996" stop-color="#E6B3D5"/>
</linearGradient>
</defs>
</svg>
