<svg width="262" height="264" viewBox="0 0 262 264" fill="none" xmlns="http://www.w3.org/2000/svg">
<path d="M261.73 87.7782V198.285L258.159 200.138L109.823 112.799L107.68 2.292C107.68 2.292 110.061 0.901982 111.014 0.438642C111.966 -0.0246981 112.919 -0.256368 114.109 0.438642L257.683 81.0598C260.302 82.4498 261.73 84.9982 261.73 87.7782Z" fill="url(#paint0_linear_1119_31)"/>
<path d="M258.159 89.6315V200.138L106.014 114.884V4.84033C106.014 2.7553 108.395 1.36528 110.537 2.29196L254.111 82.9131C256.73 84.3031 258.159 86.8515 258.159 89.6315Z" fill="url(#paint1_linear_1119_31)"/>
<path d="M250.778 87.7782V188.786L110.538 110.25V9.24207L250.778 87.7782Z" fill="url(#paint2_linear_1119_31)"/>
<path d="M229.587 82.4497V92.8749L150.3 48.3943V37.9691L229.587 82.4497Z" fill="url(#paint3_linear_1119_31)"/>
<path d="M152.443 46.7727V41.9076L227.444 84.0715V88.7049L152.443 46.7727Z" fill="url(#paint4_linear_1119_31)"/>
<path d="M204.825 133.88L232.206 149.402C233.397 150.097 234.825 149.402 234.825 148.244V116.969C234.825 116.274 234.349 115.579 233.635 115.115L206.253 99.5933C205.063 98.8983 203.634 99.5933 203.634 100.752V132.027C203.634 132.722 204.11 133.417 204.825 133.88Z" fill="url(#paint5_linear_1119_31)"/>
<g opacity="0.25">
<path d="M232.682 120.675L205.777 105.385" stroke="white" stroke-width="0.846" stroke-miterlimit="10" stroke-linecap="round"/>
<path d="M232.682 123.919L205.777 108.629" stroke="white" stroke-width="0.846" stroke-miterlimit="10" stroke-linecap="round"/>
<path d="M232.682 127.162L205.777 112.104" stroke="white" stroke-width="0.846" stroke-miterlimit="10" stroke-linecap="round"/>
<path d="M232.682 130.405L205.777 115.347" stroke="white" stroke-width="0.846" stroke-miterlimit="10" stroke-linecap="round"/>
<path d="M232.682 133.649L205.777 118.59" stroke="white" stroke-width="0.846" stroke-miterlimit="10" stroke-linecap="round"/>
<path d="M232.682 136.892L205.777 121.834" stroke="white" stroke-width="0.846" stroke-miterlimit="10" stroke-linecap="round"/>
<path d="M232.682 140.367L205.777 125.077" stroke="white" stroke-width="0.846" stroke-miterlimit="10" stroke-linecap="round"/>
<path d="M232.682 143.611L212.682 132.259" stroke="white" stroke-width="0.846" stroke-miterlimit="10" stroke-linecap="round"/>
</g>
<path d="M106.014 119.054L257.921 200.138V204.308L151.729 262.921C149.348 264.311 146.252 264.311 143.871 262.921L1.9643 183.226C0.535706 182.531 0.0595093 181.141 0.0595093 179.983C0.0595093 178.593 0.0595093 175.813 0.0595093 175.813L106.014 119.054Z" fill="url(#paint6_linear_1119_31)"/>
<path d="M106.014 114.884L257.921 200.37L151.729 258.982C149.348 260.372 146.252 260.372 143.871 258.982L1.96429 179.056C-0.654803 177.666 -0.654803 173.728 1.96429 172.338L106.014 114.884Z" fill="url(#paint7_linear_1119_31)"/>
<path d="M51.727 159.596L109.109 127.857L234.825 198.285L177.443 230.023L51.727 159.596Z" fill="url(#paint8_linear_1119_31)"/>
<path d="M184.11 179.751L178.872 176.739L185.063 173.264L190.301 176.276L184.11 179.751ZM209.349 196.663L99.8231 135.039L93.6325 138.514L203.158 200.138L209.349 196.663ZM183.634 172.569L178.396 169.558L172.205 173.033L177.443 176.044L183.634 172.569ZM176.967 168.631L171.729 165.619L165.538 169.094L170.777 172.106L176.967 168.631ZM116.252 134.575L108.633 130.405L102.442 133.88L110.061 138.051L116.252 134.575ZM203.872 183.921L198.634 180.909L192.444 184.384L197.682 187.396L203.872 183.921ZM210.539 187.628L205.301 184.616L199.11 188.091L204.349 191.103L210.539 187.628ZM196.967 179.983L191.729 176.971L185.539 180.446L190.777 183.458L196.967 179.983ZM129.585 142.221L124.347 139.209L118.157 142.684L123.395 145.696L129.585 142.221ZM136.49 145.927L131.252 142.916L125.062 146.391L130.3 149.402L136.49 145.927ZM170.062 164.924L164.824 161.913L158.634 165.388L163.872 168.399L170.062 164.924ZM117.68 135.502L111.49 138.977L116.728 141.989L122.919 138.514L117.68 135.502ZM143.157 149.634L137.919 146.622L131.728 150.097L136.967 153.109L143.157 149.634ZM149.824 153.572L144.586 150.561L138.395 154.036L143.633 157.047L149.824 153.572ZM163.396 161.217L158.157 158.206L151.967 161.681L157.205 164.693L163.396 161.217ZM156.729 157.279L151.491 154.267L145.3 157.742L150.538 160.754L156.729 157.279ZM218.158 191.798L212.206 188.323L206.015 191.798L211.968 195.273L218.158 191.798ZM173.872 216.355L167.681 219.83L177.92 225.622L184.11 222.147L173.872 216.355ZM172.443 212.648L186.729 220.757L192.92 217.282L178.634 209.173L172.443 212.648ZM69.3464 157.511L64.3463 154.731L58.3938 158.206L63.3939 160.986L69.3464 157.511ZM177.205 205.466L195.539 215.892L201.729 212.417L183.396 201.991L177.205 205.466ZM172.443 215.428L166.491 212.185L160.3 215.66L166.253 218.903L172.443 215.428ZM219.587 192.725L213.396 196.2L221.968 201.065L228.158 197.59L219.587 192.725ZM204.587 201.065L213.158 205.93L219.349 202.455L210.777 197.59L204.587 201.065ZM190.777 203.15L204.349 210.795L210.539 207.32L196.967 199.675L190.777 203.15ZM83.8704 172.569L90.061 169.094L70.7749 158.437L64.5844 161.913L83.8704 172.569ZM97.4421 173.264L91.7277 170.021L85.5371 173.496L91.2515 176.739L97.4421 173.264ZM195.539 198.748L91.0134 140.136L84.8228 143.611L189.348 202.223L195.539 198.748ZM177.205 208.246L73.3941 149.866L67.2035 153.341L171.015 211.722L177.205 208.246ZM181.967 201.065L82.2037 145.001L76.0131 148.476L175.777 204.54L181.967 201.065ZM157.681 207.088L113.871 182.531L107.68 186.006L151.252 210.563L157.681 207.088ZM104.823 177.434L99.1087 174.191L92.9182 177.666L98.6326 180.909L104.823 177.434ZM165.062 211.258L159.11 207.783L152.919 211.258L158.872 214.733L165.062 211.258ZM112.204 181.604L106.49 178.361L100.299 181.836L106.014 185.079L112.204 181.604Z" fill="url(#paint9_linear_1119_31)"/>
<path d="M80.7751 179.983L113.157 198.285C113.633 198.516 113.633 199.443 113.157 199.675L95.061 209.637C94.3467 210.1 93.1562 210.1 92.442 209.637L60.0605 191.335C59.5843 191.103 59.5843 190.176 60.0605 189.945L78.156 179.983C78.8703 179.519 79.8227 179.519 80.7751 179.983Z" fill="#F5F4F9"/>
<path d="M113.157 198.98L80.7751 180.678C80.0608 180.214 78.8703 180.214 78.156 180.678L60.0605 190.64C59.8224 190.64 59.8224 190.871 59.5843 191.103C59.3462 190.64 59.5843 190.176 60.0605 189.945L78.156 179.983C78.8703 179.519 80.0608 179.519 80.7751 179.983L113.157 198.285C113.633 198.516 113.633 198.98 113.633 199.443C113.395 199.211 113.395 198.98 113.157 198.98Z" fill="#B4B9DE"/>
<path d="M180.539 44.6876L190.063 49.7844" stroke="#B4B9DE" stroke-miterlimit="10" stroke-linecap="round"/>
<path d="M194.348 51.8693C194.587 52.3326 194.348 52.796 193.872 52.796C193.396 52.796 192.92 52.3326 192.682 51.8693C192.444 51.406 192.682 50.9426 193.158 50.9426C193.634 50.9426 194.11 51.406 194.348 51.8693Z" fill="#B4B9DE"/>
<path d="M199.587 74.3414L225.301 85.2299V91.9484V182.068L143.871 228.634L121.252 201.76L199.587 74.3414Z" fill="url(#paint10_linear_1119_31)"/>
<path d="M164.11 179.751L192.444 195.968V195.505C190.777 194.346 189.824 192.725 189.824 190.408V186.47C189.824 183.69 188.396 178.593 186.253 177.203C185.777 176.971 185.539 176.739 185.063 176.508C182.443 175.349 179.348 175.349 176.491 177.203C175.062 178.361 165.538 178.129 164.11 179.751Z" fill="#B4B9DE"/>
<path d="M225.301 84.7665L153.633 44.6876L139.824 52.3327C137.205 53.7228 135.538 56.2711 135.538 59.5145V140.599C135.538 143.147 134.824 145.464 133.633 147.549L115.061 137.124C114.585 136.892 114.347 136.661 113.871 136.429C112.68 135.966 111.252 135.502 110.061 135.734C108.633 135.734 106.966 136.197 105.537 137.124C97.2039 142.452 91.9658 151.487 91.9658 160.986V161.218C91.9658 170.021 87.4419 178.361 80.0608 183.458L63.3939 195.041L134.586 235.352L151.252 223.768C158.634 218.672 163.395 210.1 163.157 201.528V201.297C163.157 196.663 164.348 192.261 166.491 188.323C168.872 183.921 172.205 180.215 176.729 177.434C179.586 175.581 182.682 175.581 185.301 176.739C185.777 176.971 186.253 177.203 186.491 177.434C189.586 180.215 190.063 183.69 190.063 186.47V190.408C190.063 195.505 195.777 198.285 200.063 195.505C205.777 192.03 206.73 185.543 206.73 180.678V99.5934C206.73 96.35 208.872 93.57 211.492 92.18L225.301 84.7665Z" fill="white"/>
<path opacity="0.35" d="M225.301 84.7665L153.633 44.6876L139.824 52.3327C137.205 53.7228 135.538 56.2711 135.538 59.5145V140.599C135.538 143.147 134.824 145.464 133.633 147.549L115.061 137.124C114.585 136.892 114.347 136.661 113.871 136.429C112.68 135.966 111.252 135.502 110.061 135.734C108.633 135.734 106.966 136.197 105.537 137.124C97.2039 142.452 91.9658 151.487 91.9658 160.986V161.218C91.9658 170.021 87.4419 178.361 80.0608 183.458L63.3939 195.041L134.586 235.352L151.252 223.768C158.634 218.672 163.395 210.1 163.157 201.528V201.297C163.157 196.663 164.348 192.261 166.491 188.323C168.872 183.921 172.205 180.215 176.729 177.434C179.586 175.581 182.682 175.581 185.301 176.739C185.777 176.971 186.253 177.203 186.491 177.434C189.586 180.215 190.063 183.69 190.063 186.47V190.408C190.063 195.505 195.777 198.285 200.063 195.505C205.777 192.03 206.73 185.543 206.73 180.678V99.5934C206.73 96.35 208.872 93.57 211.492 92.18L225.301 84.7665Z" fill="url(#paint11_linear_1119_31)"/>
<path d="M139.109 162.376L135.776 160.523C136.728 161.449 137.681 162.144 139.109 162.376Z" fill="white"/>
<path d="M63.3939 194.81V195.505L134.586 235.815V235.12L63.3939 194.81Z" fill="#C4C6E5"/>
<path d="M181.729 120.675L203.872 133.186C204.11 133.417 204.587 133.186 204.587 132.722V106.775C204.587 106.312 204.349 105.849 203.872 105.617L181.491 92.875C181.253 92.6433 180.777 92.875 180.777 93.1067V119.054C181.015 119.98 181.253 120.444 181.729 120.675Z" fill="url(#paint12_linear_1119_31)"/>
<path d="M137.681 82.9132L179.11 106.312C179.348 106.312 179.348 106.312 179.348 106.08V104.69C179.348 104.458 179.348 104.458 179.11 104.458L137.681 81.0598C137.443 81.0598 137.443 81.0598 137.443 81.2915V82.6815C137.443 82.6815 137.443 82.9132 137.681 82.9132Z" fill="url(#paint13_linear_1119_31)"/>
<path d="M137.681 78.7431L179.11 102.142C179.348 102.142 179.348 102.142 179.348 101.91V100.52C179.348 100.288 179.348 100.288 179.11 100.288L137.443 76.8898C137.205 76.8898 137.205 76.8898 137.205 77.1214V78.5115C137.443 78.5115 137.443 78.5115 137.681 78.7431Z" fill="url(#paint14_linear_1119_31)"/>
<path d="M137.681 87.0833L179.11 110.482C179.348 110.482 179.348 110.482 179.348 110.25V108.86C179.348 108.629 179.348 108.629 179.11 108.629L137.443 85.23C137.205 85.23 137.205 85.23 137.205 85.4617V86.8517C137.443 86.8517 137.443 87.0833 137.681 87.0833Z" fill="url(#paint15_linear_1119_31)"/>
<path d="M137.681 91.4849L179.11 114.884C179.348 114.884 179.348 114.884 179.348 114.652V113.262C179.348 113.03 179.348 113.03 179.11 113.03L137.443 89.6316C137.205 89.6316 137.205 89.6316 137.205 89.8633V91.2533C137.443 91.2533 137.443 91.2533 137.681 91.4849Z" fill="url(#paint16_linear_1119_31)"/>
<path d="M137.681 95.6551L179.11 119.054C179.348 119.054 179.348 119.054 179.348 118.822V117.432C179.348 117.2 179.348 117.2 179.11 117.2L137.443 93.8018C137.205 93.8018 137.205 93.8018 137.205 94.0334V95.4234C137.443 95.4234 137.443 95.6551 137.681 95.6551Z" fill="url(#paint17_linear_1119_31)"/>
<path d="M179.348 145.696L166.729 138.514C166.491 138.514 166.491 138.514 166.491 138.746V140.136C166.491 140.367 166.491 140.367 166.729 140.599L179.11 147.549C179.348 147.549 179.348 147.549 179.348 147.317V145.927C179.586 145.927 179.348 145.696 179.348 145.696Z" fill="url(#paint18_linear_1119_31)"/>
<path d="M137.443 122.297V123.687C137.443 123.919 137.443 123.919 137.681 124.15L164.348 139.209C164.586 139.209 164.586 139.209 164.586 138.977V137.587C164.586 137.356 164.586 137.356 164.348 137.124L137.681 122.065C137.681 122.065 137.443 122.297 137.443 122.297Z" fill="url(#paint19_linear_1119_31)"/>
<path d="M137.681 119.98L181.967 145.001C182.205 145.001 182.205 145.001 182.205 144.769V143.379C182.205 143.147 182.205 143.147 181.967 143.147L137.681 118.127C137.443 118.127 137.443 118.127 137.443 118.359V119.749C137.443 119.749 137.443 119.749 137.681 119.98Z" fill="url(#paint20_linear_1119_31)"/>
<path d="M137.681 115.579L179.11 138.977C179.348 138.977 179.348 138.977 179.348 138.746V137.356C179.348 137.124 179.348 137.124 179.11 137.124L137.443 113.725C137.205 113.725 137.205 113.725 137.205 113.957V115.347C137.443 115.579 137.443 115.579 137.681 115.579Z" fill="url(#paint21_linear_1119_31)"/>
<path d="M137.681 111.409L179.11 134.807C179.348 134.807 179.348 134.807 179.348 134.576V133.186C179.348 132.954 179.348 132.954 179.11 132.954L137.443 109.555C137.205 109.555 137.205 109.555 137.205 109.787V111.177C137.443 111.177 137.443 111.409 137.681 111.409Z" fill="url(#paint22_linear_1119_31)"/>
<path d="M137.681 140.599L179.11 163.998C179.348 163.998 179.348 163.998 179.348 163.766V162.376C179.348 162.144 179.348 162.144 179.11 162.144L137.443 138.746C137.205 138.746 137.205 138.746 137.205 138.977V140.367C137.443 140.367 137.443 140.367 137.681 140.599Z" fill="url(#paint23_linear_1119_31)"/>
<path d="M137.443 144.306L185.777 171.643C186.015 171.643 186.015 171.643 186.015 171.643C186.015 171.411 186.015 170.948 186.015 170.716V170.253C186.015 170.021 186.015 170.021 185.777 170.021L137.443 142.684C137.205 142.684 137.205 142.684 137.205 142.916C137.205 143.379 137.205 143.611 136.967 144.074C136.967 143.842 137.205 144.306 137.443 144.306Z" fill="url(#paint24_linear_1119_31)"/>
<path d="M136.252 147.549L184.824 174.886C185.063 174.886 185.301 174.886 185.301 174.655C185.301 174.423 185.539 173.96 185.539 173.728C185.539 173.496 185.539 173.265 185.301 173.265L136.967 145.696C136.728 145.696 136.728 145.696 136.49 145.927C136.49 146.159 136.252 146.622 136.014 146.854C136.014 147.086 136.014 147.317 136.252 147.549Z" fill="url(#paint25_linear_1119_31)"/>
<path d="M137.681 136.197L179.11 159.828C179.348 159.828 179.348 159.828 179.348 159.596V158.206C179.348 157.974 179.348 157.974 179.11 157.974L137.681 134.344C137.443 134.344 137.443 134.344 137.443 134.576V135.966C137.443 135.966 137.443 136.197 137.681 136.197Z" fill="url(#paint26_linear_1119_31)"/>
<path d="M137.681 132.027L179.11 155.426C179.348 155.426 179.348 155.426 179.348 155.194V153.804C179.348 153.573 179.348 153.573 179.11 153.573L137.443 130.174C137.205 130.174 137.205 130.174 137.205 130.406V131.796C137.443 131.796 137.443 132.027 137.681 132.027Z" fill="url(#paint27_linear_1119_31)"/>
<path d="M179.348 149.403L162.205 139.672C162.205 139.672 161.967 139.672 161.967 139.904V141.294C161.967 141.294 161.967 141.526 162.205 141.526L179.348 151.256C179.586 151.256 179.586 151.256 179.586 151.024V149.634C179.586 149.402 179.348 149.403 179.348 149.403Z" fill="url(#paint28_linear_1119_31)"/>
<path d="M137.443 126.004V127.394C137.443 127.626 137.443 127.626 137.681 127.857L160.062 140.599C160.3 140.599 160.3 140.599 160.3 140.367V138.746C160.3 138.746 160.3 138.514 160.062 138.514L137.681 125.772C137.681 125.772 137.443 125.772 137.443 126.004Z" fill="url(#paint29_linear_1119_31)"/>
<path d="M183.872 150.329L203.872 161.681C204.11 161.681 204.11 161.681 204.11 161.449V159.828C204.11 159.596 204.11 159.596 203.872 159.596L183.872 148.244C183.634 148.244 183.634 148.244 183.634 148.476V149.866C183.634 150.097 183.634 150.098 183.872 150.329Z" fill="url(#paint30_linear_1119_31)"/>
<path d="M183.872 145.927L203.872 157.279C204.11 157.279 204.11 157.279 204.11 157.048V155.658C204.11 155.426 204.11 155.426 203.872 155.426L183.872 144.074C183.634 144.074 183.634 144.074 183.634 144.306V145.696C183.634 145.696 183.634 145.927 183.872 145.927Z" fill="url(#paint31_linear_1119_31)"/>
<path d="M183.872 142.221L203.872 153.573C204.11 153.573 204.11 153.573 204.11 153.341V146.391C204.11 146.159 204.11 146.159 203.872 146.159L183.872 134.807C183.634 134.807 183.634 134.807 183.634 135.039V141.757C183.634 141.989 183.634 142.221 183.872 142.221Z" fill="url(#paint32_linear_1119_31)"/>
<path d="M183.872 166.546L201.253 176.276C201.491 176.276 201.491 176.276 201.491 176.045V174.655C201.491 174.423 201.491 174.423 201.253 174.423L183.872 164.693C183.634 164.693 183.634 164.693 183.634 164.924V166.314C183.634 166.314 183.634 166.546 183.872 166.546Z" fill="url(#paint33_linear_1119_31)"/>
<path d="M183.872 162.376L203.872 173.728C204.11 173.728 204.11 173.728 204.11 173.496V172.106C204.11 171.875 204.11 171.875 203.872 171.875L183.872 160.523C183.634 160.523 183.634 160.523 183.634 160.754V162.144C183.634 162.144 183.634 162.144 183.872 162.376Z" fill="url(#paint34_linear_1119_31)"/>
<path d="M183.872 157.974L203.872 169.326C204.11 169.326 204.11 169.326 204.11 169.094V167.704C204.11 167.473 204.11 167.473 203.872 167.473L183.872 156.121C183.634 156.121 183.634 156.121 183.634 156.353V157.743C183.634 157.743 183.634 157.974 183.872 157.974Z" fill="url(#paint35_linear_1119_31)"/>
<path d="M183.872 153.804L203.872 165.156C204.11 165.156 204.11 165.156 204.11 164.924V163.534C204.11 163.303 204.11 163.303 203.872 163.303L183.872 151.951C183.634 151.951 183.634 151.951 183.634 152.182V153.573C183.634 153.573 183.634 153.804 183.872 153.804Z" fill="url(#paint36_linear_1119_31)"/>
<path d="M137.443 100.752V102.142C137.443 102.373 137.443 102.373 137.681 102.605L174.824 123.687C175.062 123.687 175.301 123.687 175.301 123.455V122.297C175.301 122.065 175.3 121.834 175.062 121.834L137.919 100.752C137.681 100.52 137.443 100.52 137.443 100.752Z" fill="url(#paint37_linear_1119_31)"/>
<path d="M137.681 107.007L204.349 144.769C204.587 144.769 204.587 144.769 204.587 144.537V143.147C204.587 142.916 204.587 142.916 204.349 142.916L137.681 105.154C137.443 105.154 137.443 105.154 137.443 105.385V106.775C137.443 107.007 137.443 107.007 137.681 107.007Z" fill="url(#paint38_linear_1119_31)"/>
<path d="M186.729 177.435C188.634 178.825 190.063 183.69 190.063 186.47V188.786C190.063 188.786 190.063 189.018 190.301 189.018C191.253 189.481 197.206 192.957 198.396 193.42H198.634C199.825 192.493 201.015 191.566 201.73 190.408C201.968 189.945 202.444 189.481 202.682 189.25C204.587 186.238 204.587 179.751 204.11 179.52L189.11 171.18C189.11 171.18 188.872 170.948 188.634 170.948C188.396 170.948 188.158 170.948 188.158 171.411C188.158 173.728 187.682 175.581 186.729 177.435Z" fill="url(#paint39_linear_1119_31)"/>
<path d="M190.063 190.176V190.64C190.063 190.871 190.063 191.335 190.063 191.566L195.301 194.346C195.777 194.578 196.491 194.578 197.206 194.346C197.206 194.346 197.444 194.346 197.444 194.115L190.063 190.176Z" fill="url(#paint40_linear_1119_31)"/>
<path d="M133.871 176.276L161.253 191.798C161.729 192.03 162.443 191.798 162.681 191.335C163.157 189.481 163.872 187.86 164.824 186.238C167.205 181.836 170.539 178.13 175.062 175.35C175.777 174.886 176.491 174.423 177.443 174.423C177.92 174.191 177.92 173.728 177.443 173.496L173.158 170.948L158.157 162.376L150.538 157.974C150.062 157.743 149.348 157.511 148.633 157.743C147.681 157.974 146.729 158.438 145.776 158.901C141.49 161.681 137.919 165.388 135.538 169.79C134.586 171.411 133.871 173.033 133.395 174.886C133.157 175.35 133.395 175.813 133.871 176.276Z" fill="url(#paint41_linear_1119_31)"/>
<path d="M108.395 138.514L134.109 153.109L142.443 157.743C142.681 157.743 142.681 157.743 142.919 157.743C143.157 157.743 143.157 157.511 143.395 157.511C143.633 157.279 143.871 157.279 144.348 157.048V156.816L134.109 151.024L110.299 137.587C109.585 137.819 109.109 138.051 108.395 138.514Z" fill="url(#paint42_linear_1119_31)"/>
<path d="M105.299 140.831C105.061 140.831 105.299 141.062 105.299 141.294L134.109 157.743L139.109 160.523C139.348 160.523 139.586 160.523 139.586 160.523C139.824 160.291 140.062 160.291 140.3 160.059C140.538 159.828 140.538 159.364 140.3 159.364L134.109 155.889L106.966 140.367C106.728 140.367 106.49 140.367 106.49 140.367C106.014 140.136 105.776 140.367 105.299 140.831Z" fill="url(#paint43_linear_1119_31)"/>
<path d="M102.918 144.074L136.49 163.071C136.728 163.303 136.967 163.071 137.205 162.839C137.443 162.608 137.681 162.376 137.681 162.144C137.919 161.913 137.919 161.681 137.681 161.449L135.776 160.291L103.871 142.221C103.633 141.989 103.395 142.221 103.156 142.221C102.918 142.452 102.918 142.452 102.68 142.684C102.442 143.379 102.68 143.842 102.918 144.074Z" fill="url(#paint44_linear_1119_31)"/>
<path d="M100.299 146.854L134.109 166.083C134.347 166.314 134.824 166.083 134.824 165.851C135.062 165.619 135.062 165.388 135.3 165.156C135.538 164.924 135.3 164.693 135.062 164.461L101.252 145.232C101.014 145.001 100.775 145.232 100.537 145.464C100.299 145.696 100.299 145.927 100.061 146.159C100.061 146.391 100.061 146.622 100.299 146.854Z" fill="url(#paint45_linear_1119_31)"/>
<path d="M98.1563 149.866C98.1563 149.866 98.3944 149.866 98.1563 149.866L132.205 169.094C132.443 169.326 132.919 169.094 132.919 168.863C132.919 168.631 133.157 168.399 133.157 168.399C133.157 168.399 133.157 168.168 133.395 168.168C133.633 167.936 133.395 167.704 133.395 167.704L99.1087 148.244H98.8706C98.6325 148.707 98.3944 148.939 98.1563 149.402C98.1563 149.634 98.1563 149.866 98.1563 149.866Z" fill="url(#paint46_linear_1119_31)"/>
<path d="M96.7277 153.341L131.252 172.801H131.49C131.728 172.338 131.728 171.874 131.966 171.411V171.179L97.6801 151.719H97.442C97.2039 152.182 97.2039 152.646 96.9658 153.109C96.4896 153.109 96.7277 153.341 96.7277 153.341Z" fill="url(#paint47_linear_1119_31)"/>
<path d="M95.0611 159.364C95.0611 159.596 95.0611 159.828 95.2992 159.828L161.015 196.895C161.253 196.895 161.253 196.895 161.253 196.663V195.273C161.253 195.042 161.253 195.042 161.015 195.042L95.5373 157.974C95.2992 157.974 95.0611 157.974 95.0611 158.206C95.2992 158.669 95.0611 158.901 95.0611 159.364Z" fill="url(#paint48_linear_1119_31)"/>
<path d="M94.823 164.461C94.823 164.693 94.823 164.693 95.0611 164.924L161.015 202.223C161.015 202.223 161.015 202.223 161.253 202.223C161.253 202.223 161.491 202.223 161.491 201.992V200.602V200.37C161.491 200.37 161.491 200.37 161.253 200.138L95.2992 162.839C95.0611 162.839 94.823 162.839 94.823 163.071C94.823 163.534 94.823 163.998 94.823 164.461Z" fill="url(#paint49_linear_1119_31)"/>
<path d="M94.1087 169.094C94.1087 169.326 94.1087 169.558 94.3468 169.558L159.824 206.625C160.062 206.625 160.3 206.625 160.3 206.393C160.3 205.93 160.538 205.698 160.538 205.235C160.538 205.003 160.538 205.003 160.3 204.772L94.823 167.704C94.5849 167.704 94.3468 167.704 94.3468 167.936C94.3468 168.399 94.3468 168.631 94.1087 169.094Z" fill="url(#paint50_linear_1119_31)"/>
<path d="M92.6801 173.265C92.6801 173.496 92.6801 173.728 92.9182 173.96L158.157 210.795C158.395 210.795 158.395 210.795 158.634 210.563C158.872 210.332 158.872 209.868 159.11 209.637C159.11 209.405 159.11 209.173 158.872 209.173L93.6325 172.106C93.3944 172.106 93.1563 172.106 93.1563 172.338C92.9182 172.57 92.9182 173.033 92.6801 173.265Z" fill="url(#paint51_linear_1119_31)"/>
<path d="M90.5372 177.203C90.5372 177.435 90.5372 177.666 90.5372 177.666L155.776 214.502C156.014 214.502 156.014 214.502 156.253 214.502C156.491 214.27 156.729 213.807 156.967 213.575C156.967 213.343 156.967 213.343 156.967 213.112L91.4896 176.276C91.2515 176.276 91.0134 176.276 91.0134 176.508C90.7753 176.74 90.7753 176.971 90.5372 177.203Z" fill="url(#paint52_linear_1119_31)"/>
<path d="M87.68 180.91C87.4419 181.141 87.68 181.373 87.68 181.373L152.681 218.208C152.919 218.208 152.919 218.208 153.157 218.208C153.395 217.977 153.633 217.745 154.11 217.282C154.348 217.05 154.11 216.818 154.11 216.818L89.1086 179.983C88.8705 179.983 88.6324 179.983 88.6324 179.983C88.1562 180.215 87.9181 180.446 87.68 180.91Z" fill="url(#paint53_linear_1119_31)"/>
<path d="M118.871 203.382C118.633 203.613 118.633 203.845 118.871 203.845L149.11 220.988C149.11 220.988 149.348 220.988 149.586 220.988C150.062 220.757 150.3 220.525 150.538 220.293C150.776 220.293 150.776 220.062 150.538 219.83L120.3 202.687C120.061 202.687 119.823 202.687 119.823 202.687C119.347 203.15 119.109 203.15 118.871 203.382Z" fill="url(#paint54_linear_1119_31)"/>
<path d="M211.73 92.4116C209.111 93.8016 206.968 96.35 206.968 99.825V180.909C206.968 188.555 204.349 192.956 200.063 195.736C195.777 198.516 190.063 195.736 190.063 190.64V186.701C190.063 183.921 189.825 181.141 187.682 178.824C186.015 176.971 183.396 175.813 181.015 176.044C178.872 176.276 176.729 177.434 175.062 178.593C169.586 182.531 165.776 188.323 164.348 194.81C163.157 200.138 163.634 205.698 161.729 210.795C159.586 216.587 154.824 221.22 149.824 224.927C146.729 227.243 134.586 235.584 134.586 235.584V236.047C134.586 236.047 144.586 229.329 149.348 225.853C154.11 222.378 159.11 217.977 161.491 212.417C164.586 205.698 163.157 198.053 165.776 191.103C167.681 185.775 171.491 181.373 176.253 178.361C178.396 176.971 180.777 175.813 183.158 176.508C185.301 176.971 186.967 178.824 187.682 180.678C189.11 183.458 189.11 186.47 189.11 189.481C189.11 191.798 189.348 194.115 191.491 195.736C195.301 198.516 197.92 197.358 199.825 196.2C200.539 195.968 202.444 195.041 204.587 191.335C207.206 187.165 206.968 179.983 206.968 179.983C206.968 179.983 207.206 100.752 207.206 99.5934C207.206 98.6667 207.444 94.7283 211.492 92.8749L225.301 85.2298V84.7665L211.73 92.4116Z" fill="#B4B9DE"/>
<path d="M140.538 68.0863C141.014 68.318 141.49 68.5496 142.205 68.7813C142.919 69.2447 143.633 69.708 144.109 70.403C144.348 70.8663 144.586 71.5614 144.586 72.0247C144.586 72.488 144.348 72.9514 144.109 73.183C143.633 73.4147 142.919 73.183 142.205 72.7197C141.967 72.488 141.728 72.488 141.49 72.2564V74.8047L140.776 74.3414V68.0863H140.538ZM141.49 71.5614C141.728 71.793 141.967 71.793 142.205 72.0247C143.157 72.488 143.871 72.488 143.871 71.5614C143.871 70.6347 143.157 69.9397 142.443 69.4763C141.967 69.2447 141.728 69.2447 141.728 69.013V71.5614H141.49Z" fill="#B4B9DE"/>
<path d="M145.3 70.6348C145.776 70.8664 146.252 71.0981 146.967 71.3298C147.919 71.7931 148.395 72.2565 148.871 72.9515C149.11 73.4148 149.348 73.8781 149.348 74.3415C149.348 75.2682 148.871 75.4998 148.157 75.2682C148.633 75.7315 148.871 76.4265 149.11 77.1215C149.348 78.0482 149.586 78.7432 149.586 79.2066L148.633 78.7432C148.633 78.5115 148.395 77.8165 148.157 77.1215C147.919 76.1948 147.681 75.7315 146.967 75.2682L146.252 74.8048V77.5849L145.538 77.1215V70.6348H145.3ZM146.014 73.8781L146.967 74.3415C147.919 74.8048 148.395 74.5732 148.395 73.8781C148.395 73.1831 147.681 72.4881 146.967 71.7931C146.49 71.5614 146.252 71.5614 146.252 71.3298V73.8781H146.014Z" fill="#B4B9DE"/>
<path d="M155.538 79.4382C155.538 81.5232 154.11 81.9865 152.681 81.0599C151.014 80.1332 149.824 78.2798 149.824 76.1948C149.824 74.3414 151.014 73.6464 152.681 74.5731C154.348 75.4998 155.538 77.5848 155.538 79.4382ZM150.538 76.6581C150.538 78.0481 151.252 79.6698 152.681 80.3649C153.872 81.0599 154.824 80.3648 154.824 78.9748C154.824 77.8165 154.11 76.1948 152.681 75.2681C151.252 74.5731 150.538 75.2681 150.538 76.6581Z" fill="#B4B9DE"/>
<path d="M156.014 76.6581L159.348 78.5114V79.2065L156.729 77.8164V79.9015L159.11 81.2915V81.9865L156.729 80.5965V83.3765L156.014 82.9132V76.6581Z" fill="#B4B9DE"/>
<path d="M161.253 79.4381V85.6932L160.538 85.2298V78.9747L161.253 79.4381Z" fill="#B4B9DE"/>
<path d="M162.205 80.1332L162.919 80.5965V86.1566L165.538 87.7783V88.4733L161.967 86.3883V80.1332H162.205Z" fill="#B4B9DE"/>
<path d="M169.586 87.5466L167.205 86.1566V88.4733L170.062 90.0949V90.79L166.491 88.7049V82.4498L169.824 84.3032V84.9982L167.205 83.6082V85.4615L169.586 86.8516V87.5466Z" fill="#B4B9DE"/>
<path d="M188.634 106.312C188.634 108.397 190.301 110.714 192.205 111.872C194.348 113.03 195.777 112.335 195.777 110.25C195.777 108.165 194.11 105.848 192.205 104.69C190.301 103.532 188.634 104.227 188.634 106.312Z" fill="white"/>
<path d="M184.11 116.274L200.777 125.54C200.777 121.139 196.967 115.347 192.444 112.799C190.063 111.409 188.158 111.177 186.491 111.872C185.063 112.567 184.11 113.957 184.11 116.274Z" fill="white"/>
<path d="M184.348 123.919L185.062 126.004L186.729 127.162L185.539 127.626L185.777 129.711L184.348 127.857H182.682L182.92 126.236L181.729 124.382L183.396 125.077L184.348 123.919Z" fill="url(#paint55_linear_1119_31)"/>
<path d="M191.015 127.857L191.967 129.942L193.634 131.101L192.444 131.564L192.682 133.417L191.015 131.796H189.586L189.824 130.174L188.634 128.321L190.301 129.016L191.015 127.857Z" fill="url(#paint56_linear_1119_31)"/>
<path d="M197.92 131.796L198.872 133.649L200.539 135.039L199.348 135.502L199.587 137.356L197.92 135.734L196.491 135.502L196.729 134.112L195.301 132.027L197.206 132.954L197.92 131.796Z" fill="url(#paint57_linear_1119_31)"/>
<defs>
<linearGradient id="paint0_linear_1119_31" x1="107.734" y1="100.089" x2="261.714" y2="100.089" gradientUnits="userSpaceOnUse">
<stop stop-color="#E17A9E"/>
<stop offset="1" stop-color="#E593A2"/>
</linearGradient>
<linearGradient id="paint1_linear_1119_31" x1="106.131" y1="101.048" x2="258.149" y2="101.048" gradientUnits="userSpaceOnUse">
<stop stop-color="#F8E7D4"/>
<stop offset="0.8395" stop-color="#E399D7"/>
<stop offset="1" stop-color="#DF8AD7"/>
</linearGradient>
<linearGradient id="paint2_linear_1119_31" x1="110.534" y1="99.0519" x2="250.76" y2="99.0519" gradientUnits="userSpaceOnUse">
<stop stop-color="white"/>
<stop offset="1" stop-color="white"/>
</linearGradient>
<linearGradient id="paint3_linear_1119_31" x1="150.24" y1="65.4269" x2="229.657" y2="65.4269" gradientUnits="userSpaceOnUse">
<stop stop-color="#F8E7D4"/>
<stop offset="0.8395" stop-color="#E399D7"/>
<stop offset="1" stop-color="#DF8AD7"/>
</linearGradient>
<linearGradient id="paint4_linear_1119_31" x1="152.429" y1="65.3607" x2="227.468" y2="65.3607" gradientUnits="userSpaceOnUse">
<stop stop-color="#E17A9E"/>
<stop offset="1" stop-color="#E593A2"/>
</linearGradient>
<linearGradient id="paint5_linear_1119_31" x1="203.722" y1="124.463" x2="234.805" y2="124.463" gradientUnits="userSpaceOnUse">
<stop stop-color="#F8E7D4"/>
<stop offset="0.8395" stop-color="#E399D7"/>
<stop offset="1" stop-color="#DF8AD7"/>
</linearGradient>
<linearGradient id="paint6_linear_1119_31" x1="-0.0219206" y1="191.592" x2="258.149" y2="191.592" gradientUnits="userSpaceOnUse">
<stop stop-color="#E17A9E"/>
<stop offset="1" stop-color="#E593A2"/>
</linearGradient>
<linearGradient id="paint7_linear_1119_31" x1="170.224" y1="163.718" x2="62.536" y2="227.618" gradientUnits="userSpaceOnUse">
<stop stop-color="#F8E7D4"/>
<stop offset="0.8395" stop-color="#E399D7"/>
<stop offset="1" stop-color="#DF8AD7"/>
</linearGradient>
<linearGradient id="paint8_linear_1119_31" x1="51.8061" y1="178.967" x2="234.805" y2="178.967" gradientUnits="userSpaceOnUse">
<stop stop-color="#F8E7D4"/>
<stop offset="0.8395" stop-color="#E399D7"/>
<stop offset="1" stop-color="#DF8AD7"/>
</linearGradient>
<linearGradient id="paint9_linear_1119_31" x1="198.315" y1="147.007" x2="89.822" y2="211.384" gradientUnits="userSpaceOnUse">
<stop stop-color="#E17A9E"/>
<stop offset="1" stop-color="#E593A2"/>
</linearGradient>
<linearGradient id="paint10_linear_1119_31" x1="173.257" y1="228.623" x2="173.257" y2="74.3417" gradientUnits="userSpaceOnUse">
<stop stop-color="#B4B9DE" stop-opacity="0.1"/>
<stop offset="1" stop-color="#B4B9DE" stop-opacity="0.3"/>
</linearGradient>
<linearGradient id="paint11_linear_1119_31" x1="111.831" y1="222.354" x2="197.809" y2="69.304" gradientUnits="userSpaceOnUse">
<stop stop-color="#B4B9DE" stop-opacity="0.1"/>
<stop offset="0.5409" stop-color="#B4B9DE" stop-opacity="0.4"/>
<stop offset="1" stop-color="white" stop-opacity="0.3"/>
</linearGradient>
<linearGradient id="paint12_linear_1119_31" x1="180.996" y1="113.089" x2="204.702" y2="113.089" gradientUnits="userSpaceOnUse">
<stop stop-color="#F8E7D4"/>
<stop offset="0.8395" stop-color="#E399D7"/>
<stop offset="1" stop-color="#DF8AD7"/>
</linearGradient>
<linearGradient id="paint13_linear_1119_31" x1="137.413" y1="93.6784" x2="179.496" y2="93.6784" gradientUnits="userSpaceOnUse">
<stop stop-color="#CED3EC"/>
<stop offset="0.3714" stop-color="#D6DBEE"/>
<stop offset="0.8656" stop-color="#DBE1F0"/>
</linearGradient>
<linearGradient id="paint14_linear_1119_31" x1="137.413" y1="89.4396" x2="179.496" y2="89.4396" gradientUnits="userSpaceOnUse">
<stop stop-color="#CED3EC"/>
<stop offset="0.3714" stop-color="#D6DBEE"/>
<stop offset="0.8656" stop-color="#DBE1F0"/>
</linearGradient>
<linearGradient id="paint15_linear_1119_31" x1="137.413" y1="97.9174" x2="179.496" y2="97.9174" gradientUnits="userSpaceOnUse">
<stop stop-color="#CED3EC"/>
<stop offset="0.3714" stop-color="#D6DBEE"/>
<stop offset="0.8656" stop-color="#DBE1F0"/>
</linearGradient>
<linearGradient id="paint16_linear_1119_31" x1="137.413" y1="102.156" x2="179.496" y2="102.156" gradientUnits="userSpaceOnUse">
<stop stop-color="#CED3EC"/>
<stop offset="0.3714" stop-color="#D6DBEE"/>
<stop offset="0.8656" stop-color="#DBE1F0"/>
</linearGradient>
<linearGradient id="paint17_linear_1119_31" x1="137.413" y1="106.395" x2="179.496" y2="106.395" gradientUnits="userSpaceOnUse">
<stop stop-color="#CED3EC"/>
<stop offset="0.3714" stop-color="#D6DBEE"/>
<stop offset="0.8656" stop-color="#DBE1F0"/>
</linearGradient>
<linearGradient id="paint18_linear_1119_31" x1="166.465" y1="143.119" x2="179.493" y2="143.119" gradientUnits="userSpaceOnUse">
<stop stop-color="#CED3EC"/>
<stop offset="0.3714" stop-color="#D6DBEE"/>
<stop offset="0.8656" stop-color="#DBE1F0"/>
</linearGradient>
<linearGradient id="paint19_linear_1119_31" x1="137.412" y1="130.751" x2="164.727" y2="130.751" gradientUnits="userSpaceOnUse">
<stop stop-color="#CED3EC"/>
<stop offset="0.3714" stop-color="#D6DBEE"/>
<stop offset="0.8656" stop-color="#DBE1F0"/>
</linearGradient>
<linearGradient id="paint20_linear_1119_31" x1="137.413" y1="131.477" x2="182.306" y2="131.477" gradientUnits="userSpaceOnUse">
<stop stop-color="#CED3EC"/>
<stop offset="0.3714" stop-color="#D6DBEE"/>
<stop offset="0.8656" stop-color="#DBE1F0"/>
</linearGradient>
<linearGradient id="paint21_linear_1119_31" x1="137.413" y1="126.436" x2="179.496" y2="126.436" gradientUnits="userSpaceOnUse">
<stop stop-color="#CED3EC"/>
<stop offset="0.3714" stop-color="#D6DBEE"/>
<stop offset="0.8656" stop-color="#DBE1F0"/>
</linearGradient>
<linearGradient id="paint22_linear_1119_31" x1="137.413" y1="122.198" x2="179.496" y2="122.198" gradientUnits="userSpaceOnUse">
<stop stop-color="#CED3EC"/>
<stop offset="0.3714" stop-color="#D6DBEE"/>
<stop offset="0.8656" stop-color="#DBE1F0"/>
</linearGradient>
<linearGradient id="paint23_linear_1119_31" x1="137.413" y1="151.244" x2="179.496" y2="151.244" gradientUnits="userSpaceOnUse">
<stop stop-color="#CED3EC"/>
<stop offset="0.3714" stop-color="#D6DBEE"/>
<stop offset="0.8656" stop-color="#DBE1F0"/>
</linearGradient>
<linearGradient id="paint24_linear_1119_31" x1="137.052" y1="157.001" x2="186.093" y2="157.001" gradientUnits="userSpaceOnUse">
<stop stop-color="#CED3EC"/>
<stop offset="0.3714" stop-color="#D6DBEE"/>
<stop offset="0.8656" stop-color="#DBE1F0"/>
</linearGradient>
<linearGradient id="paint25_linear_1119_31" x1="136.07" y1="160.372" x2="185.745" y2="160.372" gradientUnits="userSpaceOnUse">
<stop stop-color="#CED3EC"/>
<stop offset="0.3714" stop-color="#D6DBEE"/>
<stop offset="0.8656" stop-color="#DBE1F0"/>
</linearGradient>
<linearGradient id="paint26_linear_1119_31" x1="137.413" y1="147.005" x2="179.496" y2="147.005" gradientUnits="userSpaceOnUse">
<stop stop-color="#CED3EC"/>
<stop offset="0.3714" stop-color="#D6DBEE"/>
<stop offset="0.8656" stop-color="#DBE1F0"/>
</linearGradient>
<linearGradient id="paint27_linear_1119_31" x1="137.413" y1="142.766" x2="179.496" y2="142.766" gradientUnits="userSpaceOnUse">
<stop stop-color="#CED3EC"/>
<stop offset="0.3714" stop-color="#D6DBEE"/>
<stop offset="0.8656" stop-color="#DBE1F0"/>
</linearGradient>
<linearGradient id="paint28_linear_1119_31" x1="161.955" y1="145.448" x2="179.493" y2="145.448" gradientUnits="userSpaceOnUse">
<stop stop-color="#CED3EC"/>
<stop offset="0.3714" stop-color="#D6DBEE"/>
<stop offset="0.8656" stop-color="#DBE1F0"/>
</linearGradient>
<linearGradient id="paint29_linear_1119_31" x1="137.412" y1="133.1" x2="160.21" y2="133.1" gradientUnits="userSpaceOnUse">
<stop stop-color="#CED3EC"/>
<stop offset="0.3714" stop-color="#D6DBEE"/>
<stop offset="0.8656" stop-color="#DBE1F0"/>
</linearGradient>
<linearGradient id="paint30_linear_1119_31" x1="183.623" y1="154.912" x2="204.26" y2="154.912" gradientUnits="userSpaceOnUse">
<stop stop-color="#CED3EC"/>
<stop offset="0.3714" stop-color="#D6DBEE"/>
<stop offset="0.8656" stop-color="#DBE1F0"/>
</linearGradient>
<linearGradient id="paint31_linear_1119_31" x1="183.623" y1="150.673" x2="204.26" y2="150.673" gradientUnits="userSpaceOnUse">
<stop stop-color="#CED3EC"/>
<stop offset="0.3714" stop-color="#D6DBEE"/>
<stop offset="0.8656" stop-color="#DBE1F0"/>
</linearGradient>
<linearGradient id="paint32_linear_1119_31" x1="183.623" y1="144.24" x2="204.26" y2="144.24" gradientUnits="userSpaceOnUse">
<stop stop-color="#CED3EC"/>
<stop offset="0.3714" stop-color="#D6DBEE"/>
<stop offset="0.8656" stop-color="#DBE1F0"/>
</linearGradient>
<linearGradient id="paint33_linear_1119_31" x1="183.623" y1="170.471" x2="201.51" y2="170.471" gradientUnits="userSpaceOnUse">
<stop stop-color="#CED3EC"/>
<stop offset="0.3714" stop-color="#D6DBEE"/>
<stop offset="0.8656" stop-color="#DBE1F0"/>
</linearGradient>
<linearGradient id="paint34_linear_1119_31" x1="183.623" y1="167.003" x2="204.26" y2="167.003" gradientUnits="userSpaceOnUse">
<stop stop-color="#CED3EC"/>
<stop offset="0.3714" stop-color="#D6DBEE"/>
<stop offset="0.8656" stop-color="#DBE1F0"/>
</linearGradient>
<linearGradient id="paint35_linear_1119_31" x1="183.623" y1="162.764" x2="204.26" y2="162.764" gradientUnits="userSpaceOnUse">
<stop stop-color="#CED3EC"/>
<stop offset="0.3714" stop-color="#D6DBEE"/>
<stop offset="0.8656" stop-color="#DBE1F0"/>
</linearGradient>
<linearGradient id="paint36_linear_1119_31" x1="183.623" y1="158.525" x2="204.26" y2="158.525" gradientUnits="userSpaceOnUse">
<stop stop-color="#CED3EC"/>
<stop offset="0.3714" stop-color="#D6DBEE"/>
<stop offset="0.8656" stop-color="#DBE1F0"/>
</linearGradient>
<linearGradient id="paint37_linear_1119_31" x1="137.412" y1="111.997" x2="175.103" y2="111.997" gradientUnits="userSpaceOnUse">
<stop stop-color="#CED3EC"/>
<stop offset="0.3714" stop-color="#D6DBEE"/>
<stop offset="0.8656" stop-color="#DBE1F0"/>
</linearGradient>
<linearGradient id="paint38_linear_1119_31" x1="137.413" y1="125.026" x2="204.702" y2="125.026" gradientUnits="userSpaceOnUse">
<stop stop-color="#CED3EC"/>
<stop offset="0.3714" stop-color="#D6DBEE"/>
<stop offset="0.8656" stop-color="#DBE1F0"/>
</linearGradient>
<linearGradient id="paint39_linear_1119_31" x1="186.633" y1="182.323" x2="204.261" y2="182.323" gradientUnits="userSpaceOnUse">
<stop stop-color="#CED3EC"/>
<stop offset="0.3714" stop-color="#D6DBEE"/>
<stop offset="0.8656" stop-color="#DBE1F0"/>
</linearGradient>
<linearGradient id="paint40_linear_1119_31" x1="189.965" y1="192.308" x2="197.376" y2="192.308" gradientUnits="userSpaceOnUse">
<stop stop-color="#CED3EC"/>
<stop offset="0.3714" stop-color="#D6DBEE"/>
<stop offset="0.8656" stop-color="#DBE1F0"/>
</linearGradient>
<linearGradient id="paint41_linear_1119_31" x1="133.169" y1="174.616" x2="177.465" y2="174.616" gradientUnits="userSpaceOnUse">
<stop stop-color="#CED3EC"/>
<stop offset="0.3714" stop-color="#D6DBEE"/>
<stop offset="0.8656" stop-color="#DBE1F0"/>
</linearGradient>
<linearGradient id="paint42_linear_1119_31" x1="108.371" y1="147.783" x2="144.418" y2="147.783" gradientUnits="userSpaceOnUse">
<stop stop-color="#CED3EC"/>
<stop offset="0.3714" stop-color="#D6DBEE"/>
<stop offset="0.8656" stop-color="#DBE1F0"/>
</linearGradient>
<linearGradient id="paint43_linear_1119_31" x1="105.282" y1="150.136" x2="140.652" y2="150.136" gradientUnits="userSpaceOnUse">
<stop stop-color="#CED3EC"/>
<stop offset="0.3714" stop-color="#D6DBEE"/>
<stop offset="0.8656" stop-color="#DBE1F0"/>
</linearGradient>
<linearGradient id="paint44_linear_1119_31" x1="102.604" y1="152.796" x2="137.878" y2="152.796" gradientUnits="userSpaceOnUse">
<stop stop-color="#CED3EC"/>
<stop offset="0.3714" stop-color="#D6DBEE"/>
<stop offset="0.8656" stop-color="#DBE1F0"/>
</linearGradient>
<linearGradient id="paint45_linear_1119_31" x1="100.142" y1="155.701" x2="135.44" y2="155.701" gradientUnits="userSpaceOnUse">
<stop stop-color="#CED3EC"/>
<stop offset="0.3714" stop-color="#D6DBEE"/>
<stop offset="0.8656" stop-color="#DBE1F0"/>
</linearGradient>
<linearGradient id="paint46_linear_1119_31" x1="98.1494" y1="158.797" x2="133.489" y2="158.797" gradientUnits="userSpaceOnUse">
<stop stop-color="#CED3EC"/>
<stop offset="0.3714" stop-color="#D6DBEE"/>
<stop offset="0.8656" stop-color="#DBE1F0"/>
</linearGradient>
<linearGradient id="paint47_linear_1119_31" x1="96.6023" y1="162.251" x2="131.933" y2="162.251" gradientUnits="userSpaceOnUse">
<stop stop-color="#CED3EC"/>
<stop offset="0.3714" stop-color="#D6DBEE"/>
<stop offset="0.8656" stop-color="#DBE1F0"/>
</linearGradient>
<linearGradient id="paint48_linear_1119_31" x1="95.1234" y1="177.483" x2="161.357" y2="177.483" gradientUnits="userSpaceOnUse">
<stop stop-color="#CED3EC"/>
<stop offset="0.3714" stop-color="#D6DBEE"/>
<stop offset="0.8656" stop-color="#DBE1F0"/>
</linearGradient>
<linearGradient id="paint49_linear_1119_31" x1="94.8806" y1="182.52" x2="161.357" y2="182.52" gradientUnits="userSpaceOnUse">
<stop stop-color="#CED3EC"/>
<stop offset="0.3714" stop-color="#D6DBEE"/>
<stop offset="0.8656" stop-color="#DBE1F0"/>
</linearGradient>
<linearGradient id="paint50_linear_1119_31" x1="94.1313" y1="187.187" x2="160.581" y2="187.187" gradientUnits="userSpaceOnUse">
<stop stop-color="#CED3EC"/>
<stop offset="0.3714" stop-color="#D6DBEE"/>
<stop offset="0.8656" stop-color="#DBE1F0"/>
</linearGradient>
<linearGradient id="paint51_linear_1119_31" x1="92.6575" y1="191.502" x2="159.105" y2="191.502" gradientUnits="userSpaceOnUse">
<stop stop-color="#CED3EC"/>
<stop offset="0.3714" stop-color="#D6DBEE"/>
<stop offset="0.8656" stop-color="#DBE1F0"/>
</linearGradient>
<linearGradient id="paint52_linear_1119_31" x1="90.4536" y1="195.431" x2="156.998" y2="195.431" gradientUnits="userSpaceOnUse">
<stop stop-color="#CED3EC"/>
<stop offset="0.3714" stop-color="#D6DBEE"/>
<stop offset="0.8656" stop-color="#DBE1F0"/>
</linearGradient>
<linearGradient id="paint53_linear_1119_31" x1="87.6593" y1="199.007" x2="154.22" y2="199.007" gradientUnits="userSpaceOnUse">
<stop stop-color="#CED3EC"/>
<stop offset="0.3714" stop-color="#D6DBEE"/>
<stop offset="0.8656" stop-color="#DBE1F0"/>
</linearGradient>
<linearGradient id="paint54_linear_1119_31" x1="118.747" y1="211.963" x2="150.787" y2="211.963" gradientUnits="userSpaceOnUse">
<stop stop-color="#CED3EC"/>
<stop offset="0.3714" stop-color="#D6DBEE"/>
<stop offset="0.8656" stop-color="#DBE1F0"/>
</linearGradient>
<linearGradient id="paint55_linear_1119_31" x1="181.693" y1="126.792" x2="186.806" y2="126.792" gradientUnits="userSpaceOnUse">
<stop stop-color="#F8E7D4"/>
<stop offset="0.8395" stop-color="#E399D7"/>
<stop offset="1" stop-color="#DF8AD7"/>
</linearGradient>
<linearGradient id="paint56_linear_1119_31" x1="188.555" y1="130.666" x2="193.668" y2="130.666" gradientUnits="userSpaceOnUse">
<stop stop-color="#F8E7D4"/>
<stop offset="0.8395" stop-color="#E399D7"/>
<stop offset="1" stop-color="#DF8AD7"/>
</linearGradient>
<linearGradient id="paint57_linear_1119_31" x1="195.417" y1="134.539" x2="200.53" y2="134.539" gradientUnits="userSpaceOnUse">
<stop stop-color="#F8E7D4"/>
<stop offset="0.8395" stop-color="#E399D7"/>
<stop offset="1" stop-color="#DF8AD7"/>
</linearGradient>
</defs>
</svg>
