<svg width="596" height="445" viewBox="0 0 596 445" fill="none" xmlns="http://www.w3.org/2000/svg">
<path d="M298 444.092C425.642 444.092 529.117 438.051 529.117 430.599C529.117 423.146 425.642 417.105 298 417.105C170.358 417.105 66.8831 423.146 66.8831 430.599C66.8831 438.051 170.358 444.092 298 444.092Z" fill="#0A043C"/>
<path d="M247.757 431.79C247.435 431.79 214.465 431.671 181.613 430.157C114.289 427.046 113.002 421.17 112.477 418.964C112.352 418.408 112.343 417.831 112.452 417.271C112.56 416.711 112.784 416.179 113.109 415.71C116.029 411.371 127.413 409.357 140.608 407.032C152.874 404.863 166.832 402.407 169.431 398.045C169.642 397.707 169.775 397.325 169.818 396.929C169.861 396.533 169.815 396.132 169.681 395.756C168.203 391.072 154.817 387.829 139.309 384.074C113.002 377.697 80.2693 369.77 70.2803 348.505C54.236 314.354 71.3769 257.782 72.116 255.386L74.3927 256.089C74.2139 256.674 56.7869 314.188 72.4378 347.492C81.9738 367.756 115.421 375.826 139.869 381.75C157.404 386.006 170.075 389.069 171.958 395.041C172.192 395.741 172.27 396.484 172.185 397.217C172.101 397.95 171.856 398.656 171.469 399.284C168.251 404.565 155.032 406.901 141.025 409.369C129.976 411.324 117.436 413.541 115.099 417.045C114.952 417.245 114.849 417.473 114.797 417.716C114.746 417.959 114.747 418.21 114.801 418.452C115.123 419.93 120.905 424.972 181.673 427.773C214.465 429.287 247.388 429.406 247.721 429.406L247.757 431.79Z" fill="#464646"/>
<path d="M244.694 120.046H236.91V129.01H244.694V120.046Z" fill="#464646"/>
<path opacity="0.2" d="M244.694 120.046H236.91V129.01H244.694V120.046Z" fill="#393091"/>
<path d="M224.835 136.567L226.396 131.227C226.674 130.282 227.25 129.452 228.039 128.861C228.827 128.27 229.786 127.95 230.771 127.949H253.896C254.714 127.951 255.517 128.173 256.22 128.593C256.923 129.012 257.499 129.614 257.889 130.333L261.31 136.579H223.822" fill="#464646"/>
<path opacity="0.4" d="M224.835 136.567L226.396 131.227C226.674 130.282 227.25 129.452 228.039 128.861C228.827 128.27 229.786 127.95 230.771 127.949H253.896C254.714 127.951 255.517 128.173 256.22 128.593C256.923 129.012 257.499 129.614 257.889 130.333L261.31 136.579H223.822" fill="#393091"/>
<path opacity="0.2" d="M233.727 136.567H261.31L257.889 130.321C257.499 129.601 256.923 129 256.22 128.581C255.517 128.161 254.714 127.939 253.896 127.937H236.195C235.539 127.94 234.912 128.203 234.449 128.667C233.987 129.132 233.727 129.761 233.727 130.416V136.567Z" fill="#393091"/>
<path d="M251.462 121.195C257.085 115.571 257.085 106.454 251.462 100.831C245.839 95.2075 236.722 95.2075 231.098 100.831C225.475 106.454 225.475 115.571 231.098 121.195C236.722 126.818 245.839 126.818 251.462 121.195Z" fill="#464646"/>
<path opacity="0.3" d="M251.462 121.195C257.085 115.571 257.085 106.454 251.462 100.831C245.839 95.2075 236.722 95.2075 231.098 100.831C225.475 106.454 225.475 115.571 231.098 121.195C236.722 126.818 245.839 126.818 251.462 121.195Z" fill="#393091"/>
<path d="M255.672 114.432C255.672 115.991 255.21 117.515 254.343 118.811C253.477 120.107 252.246 121.117 250.805 121.713C249.365 122.309 247.78 122.464 246.251 122.159C244.723 121.854 243.319 121.103 242.217 119.999C241.116 118.896 240.366 117.491 240.064 115.962C239.761 114.433 239.919 112.848 240.517 111.409C241.115 109.969 242.127 108.74 243.424 107.875C244.721 107.011 246.246 106.551 247.805 106.553C249.892 106.556 251.893 107.388 253.369 108.865C254.844 110.342 255.672 112.345 255.672 114.432Z" fill="#464646"/>
<path opacity="0.2" d="M255.672 114.432C255.672 115.991 255.21 117.515 254.343 118.811C253.477 120.107 252.246 121.117 250.805 121.713C249.365 122.309 247.78 122.464 246.251 122.159C244.723 121.854 243.319 121.103 242.217 119.999C241.116 118.896 240.366 117.491 240.064 115.962C239.761 114.433 239.919 112.848 240.517 111.409C241.115 109.969 242.127 108.74 243.424 107.875C244.721 107.011 246.246 106.551 247.805 106.553C249.892 106.556 251.893 107.388 253.369 108.865C254.844 110.342 255.672 112.345 255.672 114.432Z" fill="#393091"/>
<path d="M253.896 115.004C253.896 116.028 253.592 117.029 253.023 117.88C252.454 118.731 251.646 119.394 250.7 119.785C249.754 120.176 248.713 120.278 247.709 120.077C246.705 119.877 245.783 119.383 245.06 118.658C244.337 117.933 243.846 117.011 243.647 116.006C243.449 115.002 243.553 113.961 243.947 113.016C244.34 112.071 245.005 111.264 245.857 110.697C246.71 110.13 247.711 109.829 248.735 109.831C249.413 109.831 250.086 109.965 250.713 110.225C251.34 110.485 251.909 110.866 252.388 111.347C252.868 111.828 253.248 112.398 253.507 113.026C253.765 113.653 253.898 114.326 253.896 115.004Z" fill="#464646"/>
<path opacity="0.2" d="M239.926 105.468C239.928 105.681 239.867 105.89 239.75 106.069C239.633 106.247 239.466 106.386 239.269 106.469C239.073 106.552 238.856 106.574 238.647 106.533C238.437 106.492 238.245 106.389 238.094 106.239C237.944 106.088 237.841 105.896 237.8 105.686C237.759 105.477 237.781 105.261 237.864 105.064C237.947 104.868 238.086 104.7 238.264 104.583C238.443 104.466 238.652 104.405 238.865 104.407C239.146 104.407 239.416 104.519 239.615 104.718C239.814 104.917 239.926 105.187 239.926 105.468Z" fill="white"/>
<path d="M141.514 130.286C141.514 130.286 88.7325 126.65 84.632 228.03L73.4153 227.339C73.4153 227.339 70.2207 164.628 96.8142 133.397C99.5532 130.215 102.983 127.702 106.843 126.049C110.702 124.396 114.888 123.648 119.081 123.861C128.593 124.278 140.739 125.733 141.514 130.286Z" fill="#464646"/>
<path d="M89.8222 260.527C102.613 254.513 108.108 239.269 102.094 226.478C96.0804 213.687 80.8362 208.193 68.0451 214.206C55.254 220.22 49.7597 235.464 55.7733 248.255C61.7869 261.046 77.0311 266.54 89.8222 260.527Z" fill="#464646"/>
<path opacity="0.1" d="M89.8222 260.527C102.613 254.513 108.108 239.269 102.094 226.478C96.0804 213.687 80.8362 208.193 68.0451 214.206C55.254 220.22 49.7597 235.464 55.7733 248.255C61.7869 261.046 77.0311 266.54 89.8222 260.527Z" fill="#393091"/>
<path d="M66.001 232.143C65.08 234.702 64.9387 237.478 65.5949 240.118C66.2511 242.758 67.6754 245.144 69.6876 246.975C71.6998 248.805 74.2097 249.998 76.8998 250.402C79.59 250.807 82.3396 250.404 84.8011 249.246C87.2626 248.088 89.3254 246.226 90.7287 243.895C92.1319 241.565 92.8127 238.871 92.6849 236.153C92.5571 233.436 91.6264 230.817 90.0105 228.629C88.3947 226.44 86.1662 224.78 83.6069 223.858C81.907 223.244 80.1028 222.971 78.2974 223.055C76.492 223.14 74.7209 223.579 73.0856 224.348C71.4502 225.118 69.9827 226.203 68.767 227.54C67.5514 228.877 66.6114 230.441 66.001 232.143Z" fill="#686868"/>
<path opacity="0.1" d="M80.5069 245.186C85.1241 243.015 87.1074 237.512 84.9366 232.895C82.7659 228.278 77.2632 226.295 72.6461 228.466C68.0289 230.636 66.0456 236.139 68.2163 240.756C70.387 245.373 75.8897 247.357 80.5069 245.186Z" fill="#45444D"/>
<path d="M306.451 427.928V432.517C306.451 432.653 306.424 432.787 306.372 432.912C306.32 433.037 306.243 433.151 306.147 433.246C306.05 433.341 305.936 433.417 305.81 433.468C305.684 433.518 305.55 433.544 305.414 433.542H175.832C174.726 433.544 173.637 433.275 172.66 432.757C171.683 432.24 170.848 431.49 170.228 430.574C169.609 429.658 169.224 428.604 169.108 427.504C168.992 426.405 169.148 425.294 169.562 424.268L210.626 322.567L276.985 323.02L274.72 336.215L260.082 421.622C259.971 422.27 260.003 422.934 260.175 423.569C260.348 424.203 260.656 424.792 261.079 425.295C261.503 425.798 262.031 426.202 262.626 426.48C263.222 426.757 263.871 426.902 264.529 426.903H305.414C305.55 426.901 305.684 426.926 305.81 426.977C305.936 427.028 306.05 427.103 306.147 427.199C306.243 427.294 306.32 427.408 306.372 427.533C306.424 427.658 306.451 427.792 306.451 427.928Z" fill="url(#paint0_linear_1119_24)"/>
<path opacity="0.6" d="M306.451 427.928V432.517C306.451 432.653 306.424 432.787 306.372 432.912C306.32 433.037 306.243 433.151 306.147 433.246C306.05 433.341 305.936 433.417 305.81 433.468C305.684 433.518 305.55 433.544 305.414 433.542H175.832C174.726 433.544 173.637 433.275 172.66 432.757C171.683 432.24 170.848 431.49 170.228 430.574C169.609 429.658 169.224 428.604 169.108 427.504C168.992 426.405 169.148 425.294 169.562 424.268L195.023 361.223L210.626 322.567L276.985 323.02L274.72 336.215L268.355 373.358L260.082 421.622C259.971 422.27 260.003 422.934 260.175 423.569C260.348 424.203 260.656 424.792 261.079 425.295C261.503 425.798 262.031 426.202 262.626 426.48C263.222 426.757 263.871 426.902 264.529 426.903H305.414C305.55 426.901 305.684 426.926 305.81 426.977C305.936 427.028 306.05 427.103 306.147 427.199C306.243 427.294 306.32 427.408 306.372 427.533C306.424 427.658 306.451 427.792 306.451 427.928Z" fill="#393091"/>
<path opacity="0.2" d="M264.529 426.939H180.218C179.732 426.939 179.254 426.818 178.825 426.589C178.396 426.36 178.031 426.028 177.761 425.624C177.491 425.22 177.325 424.755 177.277 424.271C177.23 423.787 177.303 423.299 177.489 422.85L213.487 336.251H274.72L260.082 421.658C259.971 422.306 260.003 422.97 260.175 423.605C260.348 424.239 260.656 424.828 261.079 425.331C261.503 425.834 262.031 426.238 262.626 426.516C263.222 426.793 263.871 426.938 264.529 426.939Z" fill="white"/>
<path opacity="0.1" d="M276.985 323.056L274.72 336.251L268.355 373.394L195.023 361.26L210.626 322.603L276.985 323.056Z" fill="white"/>
<path d="M406.019 133.504H98.8048C97.7723 133.504 96.7498 133.708 95.796 134.103C94.8422 134.499 93.9757 135.078 93.2461 135.809C92.5165 136.54 91.9381 137.407 91.5441 138.361C91.15 139.316 90.948 140.339 90.9496 141.371V349.316C90.9496 351.399 91.7772 353.397 93.2503 354.87C94.7235 356.343 96.7215 357.171 98.8048 357.171H406.019C407.052 357.172 408.074 356.97 409.029 356.576C409.983 356.182 410.85 355.604 411.581 354.874C412.312 354.145 412.892 353.278 413.287 352.324C413.683 351.371 413.886 350.348 413.886 349.316V141.335C413.88 139.254 413.048 137.26 411.573 135.792C410.098 134.324 408.1 133.501 406.019 133.504Z" fill="url(#paint1_linear_1119_24)"/>
<path opacity="0.7" d="M406.019 133.504H98.8048C97.7723 133.504 96.7498 133.708 95.796 134.103C94.8422 134.499 93.9757 135.078 93.2461 135.809C92.5165 136.54 91.9381 137.407 91.5441 138.361C91.15 139.316 90.948 140.339 90.9496 141.371V349.316C90.9496 351.399 91.7772 353.397 93.2503 354.87C94.7235 356.343 96.7215 357.171 98.8048 357.171H406.019C407.052 357.172 408.074 356.97 409.029 356.576C409.983 356.182 410.85 355.604 411.581 354.874C412.312 354.145 412.892 353.278 413.287 352.324C413.683 351.371 413.886 350.348 413.886 349.316V141.335C413.88 139.254 413.048 137.26 411.573 135.792C410.098 134.324 408.1 133.501 406.019 133.504Z" fill="#393091"/>
<path opacity="0.2" d="M105.313 357.171H98.8049C96.7215 357.171 94.7235 356.343 93.2503 354.87C91.7772 353.397 90.9496 351.399 90.9496 349.316V141.335C90.948 140.303 91.15 139.28 91.5441 138.326C91.9382 137.371 92.5165 136.504 93.2461 135.773C93.9757 135.043 94.8422 134.463 95.796 134.067C96.7499 133.672 97.7723 133.468 98.8049 133.468H105.313C104.281 133.468 103.258 133.672 102.304 134.067C101.351 134.463 100.484 135.043 99.7545 135.773C99.0249 136.504 98.4465 137.371 98.0524 138.326C97.6584 139.28 97.4563 140.303 97.4579 141.335V349.316C97.4579 351.399 98.2855 353.397 99.7587 354.87C101.232 356.343 103.23 357.171 105.313 357.171Z" fill="white"/>
<path d="M406.806 141.168H104.55V341.722H406.806V141.168Z" fill="url(#paint2_linear_1119_24)"/>
<path opacity="0.1" d="M375.301 141.168C333.51 183.032 226.17 276.222 104.55 269.392V141.168H375.301Z" fill="#393091"/>
<path opacity="0.1" d="M406.806 218.136V341.723H224.835C231.808 316.763 245.755 282.576 272.825 258.14C321.506 214.191 377.995 214.322 406.806 218.136Z" fill="#393091"/>
<path opacity="0.8" d="M285.103 258.879H226.254C224.779 258.879 223.583 260.074 223.583 261.549V262.05C223.583 263.524 224.779 264.72 226.254 264.72H285.103C286.577 264.72 287.773 263.524 287.773 262.05V261.549C287.773 260.074 286.577 258.879 285.103 258.879Z" fill="#393091"/>
<path opacity="0.4" d="M293.518 271.872H217.838C216.732 271.872 215.835 272.768 215.835 273.874V280.764C215.835 281.87 216.732 282.766 217.838 282.766H293.518C294.624 282.766 295.521 281.87 295.521 280.764V273.874C295.521 272.768 294.624 271.872 293.518 271.872Z" fill="white"/>
<path d="M293.506 273.17H286.855C286.466 273.17 286.151 273.485 286.151 273.874V280.752C286.151 281.14 286.466 281.455 286.855 281.455H293.506C293.895 281.455 294.209 281.14 294.209 280.752V273.874C294.209 273.485 293.895 273.17 293.506 273.17Z" fill="url(#paint3_linear_1119_24)"/>
<path opacity="0.4" d="M289.656 216.241C289.658 222.961 287.668 229.531 283.936 235.119C280.204 240.708 274.898 245.064 268.69 247.636C262.482 250.209 255.65 250.883 249.059 249.572C242.468 248.262 236.414 245.026 231.662 240.274C226.91 235.523 223.675 229.468 222.364 222.877C221.054 216.286 221.727 209.455 224.3 203.247C226.873 197.039 231.229 191.733 236.818 188.001C242.406 184.269 248.976 182.278 255.696 182.281C260.161 182.26 264.587 183.125 268.716 184.824C272.846 186.523 276.597 189.024 279.755 192.182C282.913 195.339 285.413 199.091 287.113 203.221C288.812 207.35 289.676 211.775 289.656 216.241Z" fill="white"/>
<path opacity="0.8" d="M281.312 238.483C278.125 242.168 274.183 245.123 269.752 247.149C265.322 249.174 260.508 250.223 255.636 250.223C250.765 250.223 245.951 249.174 241.52 247.149C237.09 245.123 233.148 242.168 229.961 238.483C231.197 234.075 233.545 230.058 236.781 226.819C240.016 223.579 244.03 221.225 248.437 219.984C246.08 218.433 244.286 216.164 243.321 213.513C242.356 210.862 242.272 207.971 243.081 205.268C243.89 202.566 245.55 200.196 247.812 198.511C250.075 196.827 252.821 195.917 255.642 195.917C258.463 195.917 261.209 196.827 263.472 198.511C265.735 200.196 267.394 202.566 268.203 205.268C269.013 207.971 268.928 210.862 267.964 213.513C266.999 216.164 265.205 218.433 262.848 219.984C267.253 221.226 271.265 223.58 274.498 226.82C277.732 230.059 280.078 234.076 281.312 238.483Z" fill="#393091"/>
<path opacity="0.4" d="M371.248 326.537H364.549V333.236H371.248V326.537Z" fill="white"/>
<path opacity="0.4" d="M382.56 326.537H379.294C378.346 326.537 377.578 327.305 377.578 328.253V331.519C377.578 332.467 378.346 333.236 379.294 333.236H382.56C383.508 333.236 384.277 332.467 384.277 331.519V328.253C384.277 327.305 383.508 326.537 382.56 326.537Z" fill="white"/>
<path opacity="0.4" d="M394.23 326.537H393.658C391.966 326.537 390.594 327.908 390.594 329.6V330.172C390.594 331.864 391.966 333.236 393.658 333.236H394.23C395.922 333.236 397.294 331.864 397.294 330.172V329.6C397.294 327.908 395.922 326.537 394.23 326.537Z" fill="white"/>
<g opacity="0.1">
<path opacity="0.1" d="M149.346 141.169L104.55 308.55V141.169H149.346Z" fill="#393091"/>
<path opacity="0.1" d="M199.898 141.169L146.223 341.723H109.247L162.911 141.169H199.898Z" fill="#393091"/>
<path opacity="0.1" d="M253.658 141.169L199.982 341.723H183.258L236.934 141.169H253.658Z" fill="#393091"/>
<path opacity="0.1" d="M303.161 141.169L249.486 341.723H243.502L297.177 141.169H303.161Z" fill="#393091"/>
</g>
<path d="M123.73 270.906C137.864 270.906 149.322 259.448 149.322 245.314C149.322 231.179 137.864 219.721 123.73 219.721C109.595 219.721 98.1373 231.179 98.1373 245.314C98.1373 259.448 109.595 270.906 123.73 270.906Z" fill="#464646"/>
<path d="M140.516 261.344C149.277 252.583 149.277 238.379 140.516 229.618C131.755 220.857 117.551 220.857 108.79 229.618C100.029 238.379 100.029 252.583 108.79 261.344C117.551 270.105 131.755 270.105 140.516 261.344Z" fill="#464646"/>
<path opacity="0.2" d="M140.516 261.344C149.277 252.583 149.277 238.379 140.516 229.618C131.755 220.857 117.551 220.857 108.79 229.618C100.029 238.379 100.029 252.583 108.79 261.344C117.551 270.105 131.755 270.105 140.516 261.344Z" fill="#EEEEEE"/>
<path d="M119.82 127.317C119.82 127.317 146.997 157.225 126.388 234.204L137.116 237.363C137.116 237.363 167.536 164.758 140 128.247C140.06 128.247 123.587 120.642 119.82 127.317Z" fill="#464646"/>
<path opacity="0.1" d="M119.82 127.317C119.82 127.317 146.997 157.225 126.388 234.204L137.116 237.363C137.116 237.363 167.536 164.758 140 128.247C140.06 128.247 123.587 120.642 119.82 127.317Z" fill="#393091"/>
<path d="M140.83 249.341C142.575 241.947 137.996 234.538 130.602 232.793C123.208 231.048 115.799 235.627 114.054 243.021C112.309 250.415 116.888 257.823 124.282 259.569C131.676 261.314 139.085 256.734 140.83 249.341Z" fill="#464646"/>
<path opacity="0.1" d="M140.83 249.341C142.575 241.947 137.996 234.538 130.602 232.793C123.208 231.048 115.799 235.627 114.054 243.021C112.309 250.415 116.888 257.823 124.282 259.569C131.676 261.314 139.085 256.734 140.83 249.341Z" fill="#393091"/>
<path d="M132.73 256.75C138.562 254.334 141.332 247.647 138.916 241.814C136.5 235.981 129.813 233.211 123.98 235.627C118.148 238.043 115.378 244.73 117.794 250.563C120.21 256.396 126.897 259.166 132.73 256.75Z" fill="#464646"/>
<path opacity="0.2" d="M132.73 256.75C138.562 254.334 141.332 247.647 138.916 241.814C136.5 235.981 129.813 233.211 123.98 235.627C118.148 238.043 115.378 244.73 117.794 250.563C120.21 256.396 126.897 259.166 132.73 256.75Z" fill="#EEEEEE"/>
<path d="M294.65 208.946L293.005 198.945L291.361 208.946L281.348 210.603L291.361 212.248L293.005 222.249L294.65 212.248L304.651 210.603L294.65 208.946Z" fill="url(#paint4_linear_1119_24)"/>
<path d="M347.504 104.885L345.549 93.0361L343.606 104.885L331.745 106.839L343.606 108.794L345.549 120.643L347.504 108.794L359.364 106.839L347.504 104.885Z" fill="url(#paint5_linear_1119_24)"/>
<path d="M395.124 236.195L393.944 229.043L392.764 236.195L385.624 237.364L392.764 238.544L393.944 245.684L395.124 238.544L402.264 237.364L395.124 236.195Z" fill="url(#paint6_linear_1119_24)"/>
<path opacity="0.6" d="M294.65 208.946L293.005 198.945L291.361 208.946L281.348 210.603L291.361 212.248L293.005 222.249L294.65 212.248L304.651 210.603L294.65 208.946Z" fill="#393091"/>
<path d="M164.818 320.148L163.173 310.147L161.528 320.148L151.515 321.793L161.528 323.45L163.173 333.451L164.818 323.45L174.819 321.793L164.818 320.148Z" fill="url(#paint7_linear_1119_24)"/>
<path opacity="0.6" d="M164.818 320.148L163.173 310.147L161.528 320.148L151.515 321.793L161.528 323.45L163.173 333.451L164.818 323.45L174.819 321.793L164.818 320.148Z" fill="#393091"/>
<path opacity="0.6" d="M347.504 104.885L345.549 93.0361L343.606 104.885L331.745 106.839L343.606 108.794L345.549 120.643L347.504 108.794L359.364 106.839L347.504 104.885Z" fill="#393091"/>
<path d="M308.335 379.641L306.38 367.792L304.425 379.641L292.564 381.596L304.425 383.551L306.38 395.399L308.335 383.551L320.183 381.596L308.335 379.641Z" fill="url(#paint8_linear_1119_24)"/>
<path opacity="0.6" d="M308.335 379.641L306.38 367.792L304.425 379.641L292.564 381.596L304.425 383.551L306.38 395.399L308.335 383.551L320.183 381.596L308.335 379.641Z" fill="#393091"/>
<path opacity="0.6" d="M395.124 236.195L393.944 229.043L392.764 236.195L385.624 237.364L392.764 238.544L393.944 245.684L395.124 238.544L402.264 237.364L395.124 236.195Z" fill="#393091"/>
<path d="M92.1296 119.749L90.9496 112.609L89.7695 119.749L82.6294 120.929L89.7695 122.109L90.9496 129.249L92.1296 122.109L99.2697 120.929L92.1296 119.749Z" fill="url(#paint9_linear_1119_24)"/>
<path opacity="0.6" d="M92.1296 119.749L90.9496 112.609L89.7695 119.749L82.6294 120.929L89.7695 122.109L90.9496 129.249L92.1296 122.109L99.2697 120.929L92.1296 119.749Z" fill="#393091"/>
<path d="M534.207 197.492C533.891 201.435 534.091 205.402 534.803 209.293H533.265C531.989 205.483 531.274 201.508 531.143 197.492H534.207Z" fill="url(#paint10_linear_1119_24)"/>
<path d="M537.282 200.102L529.248 199.542C529.248 199.542 529.367 200.734 529.534 202.677C529.534 203.296 529.641 203.988 529.701 204.751C530.392 213.762 531.406 231.749 528.783 235.933C525.207 241.595 509.449 229.103 508.972 222.261C508.972 222.261 512.798 207.421 519.962 199.542C520.63 198.81 521.347 198.125 522.108 197.491C522.323 197.301 522.537 197.134 522.764 196.967L522.406 185.047L525.005 183.855C530.31 187.367 534.938 191.809 538.665 196.967L537.282 200.102Z" fill="url(#paint11_linear_1119_24)"/>
<path opacity="0.7" d="M528.795 235.934C528.557 236.338 528.215 236.671 527.806 236.899C522.978 239.76 509.425 228.555 508.984 222.262C508.984 222.262 509.056 221.987 509.199 221.487C510.188 217.982 514.646 203.607 522.12 197.492C523.197 197.632 524.251 197.913 525.255 198.326C527.081 199.325 528.573 200.838 529.546 202.677C530.214 210.64 531.632 231.392 528.795 235.934Z" fill="#393091"/>
<path opacity="0.2" d="M527.806 236.899C522.978 239.76 509.425 228.555 508.984 222.262C508.984 222.262 509.056 221.987 509.199 221.487C514.872 218.28 530.094 229.306 527.806 236.899Z" fill="white"/>
<path opacity="0.2" d="M529.546 202.641C529.546 203.26 529.653 203.952 529.713 204.715L519.974 199.506C520.641 198.774 521.358 198.089 522.12 197.455C522.334 197.265 522.549 197.098 522.775 196.931L522.418 185.011L525.016 183.819C525.016 183.819 524.897 188.646 526.208 189.707C527.52 190.768 536.233 197.61 537.294 200.09L529.248 199.541C529.248 199.541 529.379 200.721 529.546 202.641Z" fill="white"/>
<path d="M422.481 424.699L412.813 425.712L412.325 420.11L411.002 404.864L420.669 403.839L422.135 420.682L422.481 424.699Z" fill="#F9B3A9"/>
<path d="M506.493 423.471H497.124L496.659 421.361L496.599 421.099L493.691 407.57L493.619 407.296L492.499 402.11H501.88L506.493 423.471Z" fill="#F9B3A9"/>
<path opacity="0.2" d="M420.669 403.839L422.135 420.682L412.325 420.11L411.002 404.864L420.669 403.839Z" fill="white"/>
<path opacity="0.2" d="M506.219 422.291H506.207L496.611 421.099H496.599L493.762 408.046H493.774L503.298 408.797L506.135 421.874L506.219 422.291Z" fill="white"/>
<path d="M495.872 422.911H507.256C507.442 422.912 507.622 422.976 507.768 423.093C507.913 423.21 508.014 423.373 508.054 423.555L509.902 431.899C509.94 432.101 509.934 432.31 509.883 432.509C509.832 432.709 509.738 432.895 509.607 433.054C509.476 433.213 509.312 433.342 509.126 433.43C508.94 433.519 508.737 433.566 508.531 433.568C504.848 433.508 502.166 433.282 497.541 433.282C494.692 433.282 486.098 433.58 482.164 433.58C478.23 433.58 477.718 429.694 479.327 429.336C486.551 427.763 491.986 425.581 494.299 423.507C494.726 423.113 495.29 422.899 495.872 422.911Z" fill="#464646"/>
<path d="M411.788 422.613H423.16C423.346 422.614 423.527 422.678 423.672 422.795C423.817 422.912 423.918 423.074 423.959 423.256L425.806 431.6C425.845 431.803 425.838 432.011 425.787 432.211C425.736 432.41 425.642 432.596 425.511 432.755C425.38 432.915 425.216 433.043 425.03 433.132C424.845 433.221 424.641 433.268 424.435 433.269C420.752 433.21 418.07 432.983 413.445 432.983C410.596 432.983 402.002 433.281 398.068 433.281C394.135 433.281 393.622 429.395 395.231 429.038C402.455 427.464 407.89 425.283 410.203 423.209C410.634 422.811 411.202 422.598 411.788 422.613Z" fill="#464646"/>
<path d="M410.119 416.318L423.947 416.771C418.916 324.32 416.568 319.6 461.447 275.937C462.496 289.144 463.676 302.852 464.832 314.271C465.559 321.34 465.774 327.503 466.954 332.032C474.929 362.655 494.155 416.843 494.155 416.843L507.649 417.451C507.649 417.451 490.758 343.177 489.018 318.968C486.741 287.213 494.155 252.836 489.948 227.982L442.804 236.017C400.059 298.537 392.228 312.054 410.119 416.318Z" fill="url(#paint12_linear_1119_24)"/>
<path opacity="0.3" d="M410.119 416.318L423.947 416.771C418.916 324.32 416.568 319.6 461.447 275.937C462.496 289.144 463.676 302.852 464.832 314.271C465.559 321.34 465.774 327.503 466.954 332.032C474.929 362.655 494.155 416.843 494.155 416.843L507.649 417.451C507.649 417.451 490.758 343.177 489.018 318.968C486.741 287.213 494.155 252.836 489.948 227.982L442.804 236.017C400.059 298.537 392.228 312.054 410.119 416.318Z" fill="#393091"/>
<path d="M322.162 151.135C318.395 156.558 312.423 175.94 312.423 182.282C312.423 188.623 312.304 186.442 315.88 188.337C319.456 190.232 331.03 196.586 336.692 201.103C342.354 205.621 343.916 202.665 346.121 207.29C348.326 211.915 361.724 173.806 364.609 169.599C367.494 165.391 364.037 167.322 361.212 164.831C358.387 162.339 345.895 154.258 339.088 151.206C332.282 148.155 329.147 153.006 327.252 151.206C325.356 149.406 322.162 151.135 322.162 151.135Z" fill="#F0F0F0"/>
<path d="M384.933 184.463C384.933 184.463 374.967 208.494 371.248 209.376C367.899 210.163 346.3 176.286 346.3 176.286C346.3 176.286 343.475 165.761 343.153 162.697C342.831 159.634 329.326 166.273 329.004 168.109C328.682 169.945 332.961 182.258 338.373 183.2C338.373 183.2 356.873 225.015 368.555 227.84C380.236 230.665 404.624 190.435 404.624 190.435L384.933 184.463Z" fill="#F9B3A9"/>
<path d="M449.897 147.964C449.897 147.964 482.236 150.908 488.458 153.793C494.68 156.677 521.583 193.629 521.583 193.629C521.583 193.629 532.788 197.456 532.311 201.485C531.835 205.514 531.429 212.856 528.223 211.712C525.016 210.568 516.672 203.654 516.672 203.654L516.327 200.078C516.327 200.078 484.739 166.452 483.463 165.51C482.188 164.568 450.445 163.555 450.445 163.555L449.897 147.964Z" fill="#F9B3A9"/>
<path d="M424.936 144.686C445.2 141.17 457.502 144.686 468.969 147.452L465.881 167.561L442.041 171.578L424.936 144.686Z" fill="#464646"/>
<path d="M386.899 151.23C387.269 151.504 387.65 151.767 388.091 152.005C390.347 153.364 392.961 154.008 395.589 153.853C396.255 153.82 396.917 153.732 397.568 153.59C400.087 153.104 402.377 151.804 404.084 149.889C405.792 147.974 406.824 145.552 407.02 142.993C407.664 136.354 404.1 132.182 398.676 124.672C397.43 122.899 395.751 121.474 393.798 120.532C391.846 119.589 389.685 119.162 387.521 119.29C385.357 119.418 383.262 120.096 381.434 121.262C379.606 122.427 378.106 124.04 377.077 125.948C372.309 134.566 380.057 146.045 386.899 151.23Z" fill="#F9B3A9"/>
<path opacity="0.2" d="M395.541 153.852C396.207 153.819 396.869 153.731 397.52 153.59C399.245 153.248 400.871 152.526 402.282 151.477C403.692 150.427 404.851 149.076 405.673 147.523C404.645 146.92 403.543 146.451 402.395 146.128C399.419 147.994 397.04 150.675 395.541 153.852Z" fill="white"/>
<path d="M417.593 151.385C416.687 157.488 407.044 163.376 407.044 163.376C407.044 163.376 400.429 166.309 400.19 163.698C402.944 160.563 403.277 157.822 402.36 155.354C401.746 153.892 400.846 152.567 399.713 151.456C399.105 150.816 398.46 150.211 397.782 149.645L402.014 132.957C404.887 139.37 411.037 150.396 417.593 151.385Z" fill="#F9B3A9"/>
<path d="M377.304 133.35C377.769 133.243 378.305 133.493 378.818 134.614C380.176 137.63 384.778 141.265 388.282 141.969C391.787 142.672 398.128 148.31 398.128 148.31C398.128 148.31 402.324 142.708 407.783 141.337C407.783 141.337 410.751 129.572 404.028 121.073L377.304 133.35Z" fill="#464646"/>
<path d="M389.963 138.69C390.376 139.478 390.609 140.347 390.646 141.235C390.683 142.123 390.523 143.009 390.177 143.828C389.224 145.64 386.601 144.364 385.028 142.04C383.669 139.966 382.453 136.461 384.313 135.531C386.172 134.602 388.89 136.342 389.963 138.69Z" fill="#F9B3A9"/>
<path d="M404.624 124.529C404.624 124.529 407.414 118.76 397.782 113.456C388.151 108.151 376.708 116.638 373.287 122.408C371.695 123.038 370.311 124.101 369.291 125.476C368.272 126.852 367.657 128.485 367.517 130.191C366.695 136.437 375.301 138.44 375.301 138.44C375.301 138.44 372.226 136.521 371.642 134.709C371.642 134.709 372.834 137.594 378.603 136.568C378.154 136.436 377.743 136.196 377.407 135.87C377.071 135.544 376.819 135.142 376.672 134.697C376.672 134.697 381.011 138.011 386.971 132.969C392.931 127.926 404.624 124.529 404.624 124.529Z" fill="#464646"/>
<path opacity="0.2" d="M461.447 275.877C462.496 289.085 463.688 302.769 464.88 314.236C466.573 297.751 468.647 285.998 468.647 285.998C468.647 285.998 470.59 284.4 475.93 275.877C481.27 267.355 475.93 251.441 475.93 251.441C476.049 266.222 461.447 275.877 461.447 275.877Z" fill="white"/>
<path d="M408.57 414.829L409.237 418.703H425.484V415.127L408.57 414.829Z" fill="url(#paint13_linear_1119_24)"/>
<path d="M492.558 416.319L494.108 419.895H508.912L508.626 416.319H492.558Z" fill="url(#paint14_linear_1119_24)"/>
<path d="M388.592 169.682C388.592 169.682 405.721 144.65 432.875 143.709C432.875 143.709 477.67 181.316 493.238 233.621L433.197 250.226C433.197 250.226 412.861 201.699 388.592 169.682Z" fill="#464646"/>
<path d="M388.592 169.682C381.321 182.341 375.611 199.315 375.611 199.315L393.992 211.831L408.486 195.87C408.486 195.87 408.677 183.95 400.655 176.047C392.633 168.144 388.592 169.682 388.592 169.682Z" fill="#464646"/>
<path opacity="0.8" d="M493.19 233.633L433.149 250.238C425.3 231.977 416.393 214.19 406.472 196.967C406.472 196.3 405.03 168.979 402.801 157.405C402.801 157.405 410.668 150.467 418.916 148.882C418.916 148.882 438.489 148.882 457.597 169.587C470.637 185.476 485.49 207.755 493.19 233.633Z" fill="#393091"/>
<path opacity="0.7" d="M408.57 414.829L409.237 418.703H425.484V415.127L408.57 414.829Z" fill="#393091"/>
<path opacity="0.7" d="M492.558 416.319L494.108 419.895H508.912L508.626 416.319H492.558Z" fill="#393091"/>
<defs>
<linearGradient id="paint0_linear_1119_24" x1="169.071" y1="433.542" x2="306.451" y2="433.542" gradientUnits="userSpaceOnUse">
<stop stop-color="#C871DE"/>
<stop offset="0.46875" stop-color="#69A0DC"/>
<stop offset="1" stop-color="#53B5D7"/>
</linearGradient>
<linearGradient id="paint1_linear_1119_24" x1="90.9496" y1="357.171" x2="413.886" y2="357.171" gradientUnits="userSpaceOnUse">
<stop stop-color="#C871DE"/>
<stop offset="0.46875" stop-color="#69A0DC"/>
<stop offset="1" stop-color="#53B5D7"/>
</linearGradient>
<linearGradient id="paint2_linear_1119_24" x1="104.55" y1="341.723" x2="406.806" y2="341.723" gradientUnits="userSpaceOnUse">
<stop stop-color="#C871DE"/>
<stop offset="0.46875" stop-color="#69A0DC"/>
<stop offset="1" stop-color="#53B5D7"/>
</linearGradient>
<linearGradient id="paint3_linear_1119_24" x1="286.151" y1="281.455" x2="294.209" y2="281.455" gradientUnits="userSpaceOnUse">
<stop stop-color="#C871DE"/>
<stop offset="0.46875" stop-color="#69A0DC"/>
<stop offset="1" stop-color="#53B5D7"/>
</linearGradient>
<linearGradient id="paint4_linear_1119_24" x1="281.348" y1="222.249" x2="304.651" y2="222.249" gradientUnits="userSpaceOnUse">
<stop stop-color="#C871DE"/>
<stop offset="0.46875" stop-color="#69A0DC"/>
<stop offset="1" stop-color="#53B5D7"/>
</linearGradient>
<linearGradient id="paint5_linear_1119_24" x1="331.745" y1="120.643" x2="359.364" y2="120.643" gradientUnits="userSpaceOnUse">
<stop stop-color="#C871DE"/>
<stop offset="0.46875" stop-color="#69A0DC"/>
<stop offset="1" stop-color="#53B5D7"/>
</linearGradient>
<linearGradient id="paint6_linear_1119_24" x1="385.624" y1="245.684" x2="402.264" y2="245.684" gradientUnits="userSpaceOnUse">
<stop stop-color="#C871DE"/>
<stop offset="0.46875" stop-color="#69A0DC"/>
<stop offset="1" stop-color="#53B5D7"/>
</linearGradient>
<linearGradient id="paint7_linear_1119_24" x1="151.515" y1="333.451" x2="174.819" y2="333.451" gradientUnits="userSpaceOnUse">
<stop stop-color="#C871DE"/>
<stop offset="0.46875" stop-color="#69A0DC"/>
<stop offset="1" stop-color="#53B5D7"/>
</linearGradient>
<linearGradient id="paint8_linear_1119_24" x1="292.564" y1="395.399" x2="320.183" y2="395.399" gradientUnits="userSpaceOnUse">
<stop stop-color="#C871DE"/>
<stop offset="0.46875" stop-color="#69A0DC"/>
<stop offset="1" stop-color="#53B5D7"/>
</linearGradient>
<linearGradient id="paint9_linear_1119_24" x1="82.6294" y1="129.249" x2="99.2697" y2="129.249" gradientUnits="userSpaceOnUse">
<stop stop-color="#C871DE"/>
<stop offset="0.46875" stop-color="#69A0DC"/>
<stop offset="1" stop-color="#53B5D7"/>
</linearGradient>
<linearGradient id="paint10_linear_1119_24" x1="531.143" y1="209.293" x2="534.803" y2="209.293" gradientUnits="userSpaceOnUse">
<stop stop-color="#C871DE"/>
<stop offset="0.46875" stop-color="#69A0DC"/>
<stop offset="1" stop-color="#53B5D7"/>
</linearGradient>
<linearGradient id="paint11_linear_1119_24" x1="508.972" y1="237.366" x2="538.665" y2="237.366" gradientUnits="userSpaceOnUse">
<stop stop-color="#C871DE"/>
<stop offset="0.46875" stop-color="#69A0DC"/>
<stop offset="1" stop-color="#53B5D7"/>
</linearGradient>
<linearGradient id="paint12_linear_1119_24" x1="401.14" y1="417.451" x2="507.649" y2="417.451" gradientUnits="userSpaceOnUse">
<stop stop-color="#C871DE"/>
<stop offset="0.46875" stop-color="#69A0DC"/>
<stop offset="1" stop-color="#53B5D7"/>
</linearGradient>
<linearGradient id="paint13_linear_1119_24" x1="408.57" y1="418.703" x2="425.484" y2="418.703" gradientUnits="userSpaceOnUse">
<stop stop-color="#C871DE"/>
<stop offset="0.46875" stop-color="#69A0DC"/>
<stop offset="1" stop-color="#53B5D7"/>
</linearGradient>
<linearGradient id="paint14_linear_1119_24" x1="492.558" y1="419.895" x2="508.912" y2="419.895" gradientUnits="userSpaceOnUse">
<stop stop-color="#C871DE"/>
<stop offset="0.46875" stop-color="#69A0DC"/>
<stop offset="1" stop-color="#53B5D7"/>
</linearGradient>
</defs>
</svg>
