<svg width="1281" height="1306" viewBox="0 0 1281 1306" fill="none" xmlns="http://www.w3.org/2000/svg">
<g filter="url(#filter0_f_1203_4269)">
<ellipse rx="357.668" ry="406.965" transform="matrix(1.01048 0.0123241 0.0124934 0.989255 639.137 653.283)" fill="#BB71DE" fill-opacity="0.44"/>
</g>
<path d="M923.955 801.735C927.737 811.26 922.854 821.786 913.103 825.127C903.352 828.468 892.279 823.409 888.496 813.884C884.714 804.359 889.597 793.833 899.348 790.492C909.271 787.584 920.344 792.643 923.955 801.735Z" fill="url(#paint0_linear_1203_4269)"/>
<path d="M575.526 797.34C579.309 806.865 574.425 817.391 564.674 820.732C554.923 824.073 543.85 819.014 540.068 809.489C536.285 799.965 541.169 789.438 550.92 786.097C561.286 783.037 571.744 787.816 575.526 797.34Z" fill="url(#paint1_linear_1203_4269)"/>
<path d="M586.715 888.037C590.498 897.561 585.614 908.088 575.863 911.429C566.112 914.769 555.039 909.71 551.257 900.185C547.474 890.661 552.358 880.134 562.109 876.793C571.86 873.453 583.105 878.945 586.715 888.037Z" fill="url(#paint2_linear_1203_4269)"/>
<path opacity="0.64" d="M600.94 871.562C596.885 877.886 595.916 885.621 598.403 893.159C602.859 906.93 618.012 914.567 632.137 910.712C646.263 906.858 653.683 892.47 649.226 878.699C648.191 876.093 646.984 873.052 645.06 870.75C650.096 871.985 655.676 872.047 661.183 870.653C669.357 868.344 675.707 862.713 678.972 855.672C685.659 859.795 693.879 861.419 701.609 859.263C703.832 858.501 706.499 857.587 708.549 856.391C708.794 858.281 709.212 860.605 710.074 862.777C714.531 876.548 729.683 884.186 743.809 880.331C757.935 876.476 765.354 862.089 760.898 848.318C759.863 845.711 758.828 843.105 756.905 840.803C770.567 830.692 776.607 812.829 770.77 795.583C763.482 773.406 738.73 760.669 715.985 766.985C706.922 769.598 699.066 775.252 694.122 781.881C693.877 779.991 693.36 778.688 692.67 776.951C686.144 757.967 665.266 747.357 646.251 752.888C628.569 757.961 618.555 774.719 621.379 792.01C612.296 788.214 601.681 786.918 591.284 789.988C568.54 796.304 556.15 819.797 563.438 841.974C569.374 858.2 584.4 869.335 600.94 871.562ZM670.412 820.113C669.967 820.265 670.139 820.699 669.695 820.852C669.523 820.417 669.078 820.57 668.906 820.135C669.522 820.417 669.967 820.265 670.412 820.113Z" fill="url(#paint3_linear_1203_4269)"/>
<path opacity="0.64" d="M696.489 819.143C692.707 824.882 691.737 832.617 694.224 840.154C698.508 853.492 713.661 861.129 727.17 856.992C740.852 853.29 748.271 838.902 743.543 825.717C742.508 823.111 741.473 820.504 739.549 818.202C744.585 819.437 749.72 819.651 755.055 817.823C763.229 815.514 769.135 810.035 772.4 802.994C778.643 807.27 786.864 808.894 794.421 806.303C796.644 805.541 799.311 804.627 800.917 803.583C801.162 805.473 801.58 807.798 802.27 809.535C806.554 822.873 821.707 830.51 835.216 826.373C848.897 822.671 856.317 808.283 851.588 795.098C850.553 792.491 849.519 789.885 847.767 788.018C860.985 778.058 867.198 760.629 861.534 743.817C854.418 722.073 830.282 709.619 808.154 716.216C799.09 718.829 791.679 724.331 786.735 730.961C786.49 729.071 785.972 727.768 785.282 726.03C779.101 707.914 758.667 697.152 740.096 702.53C722.858 707.452 712.844 724.21 715.94 740.915C706.857 737.119 696.414 736.257 686.462 739.175C664.161 745.338 652.043 768.246 659.604 789.837C665.54 806.063 680.122 817.351 696.489 819.143ZM763.913 768.889C763.468 769.041 763.64 769.476 763.196 769.628C763.023 769.194 762.579 769.346 762.406 768.912C763.023 769.194 763.468 769.041 763.913 768.889Z" fill="url(#paint4_linear_1203_4269)"/>
<path d="M654.886 922.437C676.917 914.889 687.848 891.325 679.302 869.805C670.756 848.286 645.969 836.96 623.938 844.508C601.907 852.057 590.975 875.621 599.521 897.14C608.067 918.66 632.855 929.985 654.886 922.437Z" fill="url(#paint5_linear_1203_4269)"/>
<path opacity="0.64" d="M815.039 808.781C819.466 800.847 820.363 791.654 816.741 782.529C810.187 766.018 791.23 757.708 774.779 763.347C757.883 769.139 749.891 787.181 756.273 803.257C757.653 806.733 759.305 809.622 761.846 812.207C755.748 810.842 748.833 811.237 742.608 813.371C732.827 816.724 725.214 824.27 722.021 832.769C713.654 828.232 703.482 826.783 694.145 829.984C691.032 831.051 688.537 832.4 686.214 834.183C685.797 831.858 685.206 829.099 684.171 826.492C677.617 809.981 658.66 801.67 642.209 807.31C625.313 813.101 617.321 831.143 623.703 847.22C624.91 850.261 626.735 853.585 628.659 855.887C612.744 869.241 606.304 891.193 614.583 912.049C625.104 938.554 655.959 952.658 683.081 943.361C694.196 939.551 703.043 932.57 708.631 923.743C708.877 925.634 709.739 927.806 710.601 929.979C719.57 952.573 745.488 964.421 768.608 956.495C789.505 949.332 800.809 928.18 795.988 907.126C807.367 911.617 820.208 912.152 832.657 907.884C859.779 898.587 873.386 869.241 862.866 842.737C854.487 822.902 835.311 810.224 815.039 808.781ZM734.405 875.418C734.677 874.831 734.677 874.831 734.949 874.244C735.122 874.679 735.566 874.526 735.739 874.961C735.294 875.113 734.849 875.266 734.405 875.418Z" fill="url(#paint6_linear_1203_4269)"/>
<path d="M890.678 910.43C909.037 904.139 918.147 884.502 911.025 866.57C903.904 848.637 883.247 839.199 864.888 845.489C846.529 851.779 837.419 871.416 844.541 889.349C851.663 907.282 872.319 916.72 890.678 910.43Z" fill="url(#paint7_linear_1203_4269)"/>
<path d="M796.657 719.752C800.44 729.277 795.556 739.803 785.805 743.144C776.054 746.485 764.981 741.425 761.199 731.901C757.416 722.376 762.3 711.85 772.051 708.509C782.417 705.449 792.875 710.227 796.657 719.752Z" fill="url(#paint8_linear_1203_4269)"/>
<path d="M570.367 877.815C575.525 890.803 568.742 905.423 555.445 909.979C542.149 914.534 526.77 907.508 521.612 894.519C516.454 881.531 523.236 866.911 536.533 862.355C549.83 857.8 565.209 864.826 570.367 877.815Z" fill="url(#paint9_linear_1203_4269)"/>
<path d="M823.064 835.194C826.847 844.718 821.963 855.245 812.212 858.586C802.461 861.927 791.388 856.867 787.606 847.343C783.823 837.818 788.707 827.292 798.458 823.951C808.652 820.458 819.282 825.669 823.064 835.194Z" fill="url(#paint10_linear_1203_4269)"/>
<path d="M821.809 807.945C840.169 801.655 849.278 782.018 842.157 764.085C835.035 746.153 814.379 736.714 796.02 743.005C777.66 749.295 768.551 768.932 775.672 786.865C782.794 804.798 803.45 814.236 821.809 807.945Z" fill="url(#paint11_linear_1203_4269)"/>
<path opacity="0.53" d="M815.102 867.887C821.421 883.819 826.005 924.317 784.272 938.634C742.539 952.951 722.141 917.879 715.821 901.947C709.502 886.015 665.782 758.17 707.076 744.004C748.809 729.687 808.783 851.955 815.102 867.887Z" fill="url(#paint12_linear_1203_4269)"/>
<path d="M594.35 676.395L588.833 682.706L588.391 682.857L587.95 683.008L587.508 683.159L587.066 683.31L586.624 683.461C586.624 683.461 586.183 683.612 586.355 684.045C586.355 684.045 585.913 684.196 586.086 684.629C586.086 684.629 586.086 684.629 585.816 685.213C585.816 685.213 585.374 685.364 585.547 685.797C585.547 685.797 585.547 685.797 585.277 686.38C585.277 686.38 585.277 686.38 585.008 686.964C585.008 686.964 585.008 686.964 584.739 687.548C584.739 687.548 584.739 687.548 584.469 688.132C584.469 688.132 584.469 688.132 584.2 688.716C584.2 688.716 584.2 688.716 583.93 689.3C583.93 689.3 583.93 689.3 583.661 689.883C583.661 689.883 583.661 689.883 583.392 690.467C583.392 690.467 583.392 690.467 583.122 691.051C583.122 691.051 583.122 691.051 582.853 691.635C582.314 692.803 581.947 694.403 581.581 696.004C581.581 696.004 581.753 696.437 581.312 696.588C581.312 696.588 581.484 697.02 581.042 697.171C581.042 697.171 581.215 697.604 580.773 697.755C580.773 697.755 580.945 698.188 580.503 698.339C580.503 698.339 580.676 698.772 580.234 698.923C580.234 698.923 580.406 699.356 579.965 699.507C579.965 699.507 580.137 699.94 579.695 700.091C579.695 700.091 579.868 700.523 579.426 700.674C579.426 700.674 579.598 701.107 579.156 701.258C579.156 701.258 579.329 701.691 578.887 701.842C578.887 701.842 579.059 702.275 578.618 702.426C578.618 702.426 578.79 702.859 578.348 703.01C578.348 703.01 578.521 703.443 578.079 703.594C578.079 703.594 578.251 704.026 577.809 704.177C577.809 704.177 577.982 704.61 577.54 704.761C577.54 704.761 577.712 705.194 577.271 705.345L577.443 705.778C577.615 706.211 577.615 706.211 577.174 706.362L577.346 706.795C577.518 707.228 577.518 707.228 577.518 707.228C577.691 707.66 577.691 707.66 577.691 707.66C577.863 708.093 577.863 708.093 577.863 708.093C578.035 708.526 578.035 708.526 578.035 708.526C578.208 708.959 578.208 708.959 578.208 708.959C578.38 709.392 578.38 709.392 578.38 709.392C578.552 709.825 578.552 709.825 578.552 709.825C578.725 710.258 578.725 710.258 578.725 710.258C578.897 710.691 578.897 710.69 578.897 710.69C579.069 711.123 579.069 711.123 579.069 711.123C579.242 711.556 579.242 711.556 579.242 711.556C579.414 711.989 579.414 711.989 579.414 711.989C579.586 712.422 579.586 712.422 579.586 712.422L579.758 712.855C579.931 713.288 579.931 713.288 579.931 713.288L580.103 713.721L580.275 714.153L580.448 714.586C580.62 715.019 580.62 715.019 580.178 715.17C580.178 715.17 580.351 715.603 579.909 715.754L585.426 709.443C585.426 709.443 585.253 709.01 585.695 708.859C585.695 708.859 585.523 708.426 585.964 708.275C585.964 708.275 585.964 708.275 585.792 707.842C585.792 707.842 585.792 707.842 585.62 707.409C585.62 707.409 585.62 707.409 585.448 706.976C585.448 706.976 585.448 706.976 585.275 706.544C585.275 706.544 585.275 706.544 585.103 706.111C585.103 706.111 585.103 706.111 584.931 705.678C584.931 705.678 584.931 705.678 584.758 705.245C584.758 705.245 584.758 705.245 584.586 704.812C584.586 704.812 584.586 704.812 584.414 704.379C584.414 704.379 584.414 704.379 584.241 703.946C584.241 703.946 584.241 703.946 584.069 703.513C584.069 703.513 584.069 703.513 583.897 703.081C583.897 703.081 583.897 703.081 583.724 702.648C583.724 702.648 583.724 702.648 583.552 702.215C583.552 702.215 583.552 702.215 583.38 701.782C583.38 701.782 583.38 701.782 583.207 701.349C583.207 701.349 583.207 701.349 583.035 700.916C583.035 700.916 583.035 700.916 582.863 700.483C582.863 700.483 582.863 700.483 583.132 699.9C583.132 699.9 583.132 699.9 582.96 699.467C582.96 699.467 582.96 699.467 583.229 698.883C583.229 698.883 583.229 698.883 583.498 698.299C583.498 698.299 583.498 698.299 583.768 697.715C583.768 697.715 583.768 697.715 584.037 697.131C584.037 697.131 584.037 697.131 584.307 696.547C584.307 696.547 584.307 696.547 584.576 695.964C584.576 695.964 584.576 695.964 584.845 695.38C584.845 695.38 584.845 695.38 585.115 694.796C585.115 694.796 585.115 694.796 585.384 694.212C585.384 694.212 585.384 694.212 585.654 693.628C585.654 693.628 585.654 693.628 585.923 693.044C585.923 693.044 585.923 693.044 586.192 692.461C586.192 692.461 586.192 692.461 586.462 691.877C586.462 691.877 586.462 691.877 586.731 691.293C586.731 691.293 586.731 691.293 587.001 690.709C587.001 690.709 587.001 690.709 587.27 690.125C587.636 688.525 588.175 687.357 588.542 685.757C588.542 685.757 588.542 685.756 588.811 685.173C588.811 685.173 588.811 685.173 589.081 684.589C589.081 684.589 589.081 684.589 589.35 684.005C589.35 684.005 589.35 684.005 589.619 683.421C589.619 683.421 589.619 683.421 589.889 682.837C589.889 682.837 589.889 682.837 590.158 682.253C590.158 682.253 590.158 682.253 590.428 681.67C590.428 681.67 590.428 681.67 590.697 681.086C590.697 681.086 590.697 681.086 590.966 680.502C590.966 680.502 590.966 680.502 591.236 679.918C591.236 679.918 591.236 679.918 591.505 679.334C591.505 679.334 591.505 679.334 591.775 678.75C591.775 678.75 591.775 678.75 592.044 678.167C592.044 678.167 592.044 678.167 592.313 677.583C592.313 677.583 592.313 677.583 592.755 677.432C592.755 677.432 592.755 677.432 593.197 677.281C593.197 677.281 593.197 677.281 593.639 677.13C594.08 676.979 593.908 676.546 594.35 676.395C593.908 676.546 593.908 676.546 594.35 676.395Z" fill="url(#paint13_linear_1203_4269)"/>
<path d="M589.631 682.608L595.191 676.237L594.746 676.39L589.631 682.608C589.186 682.761 589.186 682.761 589.631 682.608Z" fill="#9F9F9F"/>
<path d="M589.468 682.177L595.025 675.81L594.58 675.963L589.468 682.177Z" fill="#9F9F9F"/>
<path d="M589.916 682.022L595.475 675.653L595.03 675.805L589.916 682.022C589.916 682.022 589.471 682.174 589.916 682.022Z" fill="#9F9F9F"/>
<path d="M589.918 682.02L595.475 675.653L589.918 682.02Z" fill="#9F9F9F"/>
<path d="M589.165 626.334L594.603 620.07L611.776 670.078L606.507 676.769L589.165 626.334Z" fill="url(#paint14_linear_1203_4269)"/>
<path d="M571.717 631.11C572.437 630.359 572.885 630.205 573.78 629.897L574.227 629.742C574.674 629.588 575.122 629.434 575.569 629.28C576.017 629.126 576.017 629.126 576.464 628.971C576.911 628.817 576.911 628.817 577.359 628.663C577.806 628.509 577.806 628.509 578.254 628.355C578.701 628.2 578.701 628.2 579.148 628.046C579.596 627.892 579.596 627.892 580.043 627.738C580.49 627.584 580.49 627.584 580.938 627.43C581.385 627.275 581.385 627.275 581.833 627.121L582.28 626.967C582.727 626.813 582.727 626.813 583.175 626.659L583.622 626.504L584.07 626.35L584.517 626.196L584.964 626.042L585.412 625.888L585.859 625.733L586.307 625.579L586.754 625.425C586.754 625.425 587.201 625.271 587.376 625.713C587.376 625.713 587.376 625.713 587.823 625.559C587.823 625.559 587.823 625.559 588.271 625.404C588.271 625.404 588.271 625.404 588.718 625.25L594.305 618.804C594.305 618.804 594.305 618.804 593.858 618.958C593.858 618.958 593.41 619.113 593.236 618.67L592.788 618.825C592.788 618.825 592.788 618.825 592.341 618.979L591.894 619.133C591.894 619.133 591.894 619.133 591.446 619.287C591.446 619.287 591.446 619.287 590.999 619.441L590.552 619.596L590.104 619.75C590.104 619.75 590.104 619.75 589.657 619.904L589.209 620.058L588.762 620.212C588.762 620.212 588.762 620.212 588.315 620.367L587.867 620.521L587.42 620.675L586.972 620.829C586.525 620.983 586.525 620.983 586.078 621.138L585.63 621.292L585.183 621.446C584.735 621.6 584.735 621.6 584.288 621.754L583.841 621.909L583.393 622.063C582.946 622.217 582.946 622.217 582.499 622.371L582.051 622.525C582.051 622.525 582.051 622.525 581.604 622.68C581.156 622.834 580.709 622.988 580.262 623.142L579.814 623.296C578.919 623.605 578.647 624.201 577.752 624.51C577.304 624.664 577.479 625.106 577.032 625.26C577.032 625.26 576.584 625.414 576.759 625.856C576.486 626.453 576.039 626.607 575.318 627.357L569.731 633.803C570.004 633.207 570.451 633.053 571.172 632.302C571.172 632.302 571.619 632.148 571.444 631.706C571.444 631.706 571.717 631.11 571.717 631.11Z" fill="url(#paint15_linear_1203_4269)"/>
<path d="M580.896 714.658C537.283 619.933 585.272 626.506 587.809 626.616L605.301 676.925C605.301 676.925 604.862 677.075 604.691 676.644C604.691 676.644 604.252 676.795 604.081 676.364C597.519 676.164 597.519 676.164 597.519 676.164L597.08 676.314C596.641 676.464 596.202 676.615 595.763 676.765L595.324 676.915L594.885 677.066L594.446 677.216L594.007 677.366L593.568 677.517L593.129 677.667L592.69 677.817L592.252 677.968L591.813 678.118L591.374 678.268L590.935 678.419L590.496 678.569L590.057 678.719L589.618 678.87L589.179 679.02L588.74 679.17L588.301 679.321L587.862 679.471L587.423 679.622L586.984 679.772L586.545 679.922L586.106 680.073L585.667 680.223L585.228 680.373L584.79 680.524L584.351 680.674L583.912 680.824L583.473 680.975L583.034 681.125L582.595 681.275L582.156 681.426L581.717 681.576C581.717 681.576 581.278 681.726 581.449 682.157C581.449 682.157 581.01 682.308 581.181 682.738C581.181 682.738 581.181 682.738 580.914 683.32C580.914 683.32 580.475 683.47 580.646 683.901C580.646 683.901 580.646 683.901 580.378 684.482C580.378 684.482 580.378 684.482 580.11 685.064C580.11 685.064 580.11 685.064 579.843 685.645C579.843 685.645 579.843 685.645 579.575 686.226C579.575 686.226 579.575 686.226 579.307 686.807C579.307 686.807 579.307 686.807 579.039 687.389C579.039 687.389 579.039 687.389 578.772 687.97C578.772 687.97 578.772 687.97 578.504 688.551C578.504 688.551 578.504 688.551 578.236 689.133C578.236 689.133 578.236 689.133 577.968 689.714C577.433 690.876 577.069 692.47 576.704 694.063C576.704 694.063 576.876 694.494 576.437 694.645C576.437 694.645 576.608 695.076 576.169 695.226C576.169 695.226 576.34 695.657 575.901 695.807C575.901 695.807 576.072 696.238 575.633 696.388C575.633 696.388 575.805 696.819 575.366 696.97C575.366 696.97 575.537 697.401 575.098 697.551C575.098 697.551 575.269 697.982 574.83 698.132C574.83 698.132 575.001 698.563 574.562 698.714C574.562 698.714 574.734 699.144 574.295 699.295C574.295 699.295 574.466 699.726 574.027 699.876C574.027 699.876 574.198 700.307 573.759 700.457C573.759 700.457 573.93 700.888 573.491 701.039C573.491 701.039 573.663 701.47 573.224 701.62C573.224 701.62 573.395 702.051 572.956 702.201C572.956 702.201 573.127 702.632 572.688 702.782C572.688 702.782 572.859 703.213 572.42 703.364L572.592 703.795C572.763 704.226 572.763 704.226 572.324 704.376L572.495 704.807C572.666 705.238 572.666 705.238 572.666 705.238C572.837 705.669 572.837 705.669 572.837 705.669C573.009 706.1 573.009 706.1 573.009 706.1C573.18 706.531 573.18 706.531 573.18 706.531C573.351 706.962 573.351 706.962 573.351 706.962C573.522 707.392 573.522 707.392 573.522 707.392C573.693 707.823 573.693 707.823 573.693 707.823C573.864 708.254 573.864 708.254 573.864 708.254C574.036 708.685 574.036 708.685 574.036 708.685C574.207 709.116 574.207 709.116 574.207 709.116C574.378 709.547 574.378 709.547 574.378 709.547C574.549 709.978 574.549 709.978 574.549 709.978C574.72 710.409 574.72 710.409 574.72 710.409C574.892 710.84 574.892 710.84 574.892 710.84C575.063 711.271 575.063 711.271 575.063 711.271L575.234 711.702L575.405 712.133L575.576 712.564C575.748 712.995 575.748 712.995 575.309 713.145C581.164 714.077 581.335 714.508 580.896 714.658Z" fill="url(#paint16_linear_1203_4269)"/>
<path d="M745.45 620.71L754.069 622.191L754.511 622.04L754.952 621.889L755.394 621.738L755.836 621.587L756.277 621.436C756.277 621.436 756.719 621.285 756.892 621.718C756.892 621.718 757.333 621.567 757.506 622C757.506 622 757.506 622 758.12 622.282C758.12 622.282 758.561 622.131 758.734 622.564C758.734 622.564 758.734 622.564 759.348 622.845C759.348 622.845 759.348 622.845 759.962 623.127C759.962 623.127 759.962 623.127 760.576 623.409C760.576 623.409 760.576 623.409 761.19 623.691C761.19 623.691 761.19 623.691 761.804 623.973C761.804 623.973 761.804 623.973 762.418 624.255C762.418 624.255 762.418 624.255 763.032 624.537C763.032 624.537 763.032 624.537 763.646 624.819C763.646 624.819 763.646 624.819 764.26 625.101C764.26 625.101 764.26 625.101 764.874 625.383C766.102 625.947 767.503 626.943 768.903 627.94C768.903 627.94 769.076 628.373 769.517 628.222C769.517 628.222 769.69 628.655 770.131 628.504C770.131 628.504 770.304 628.937 770.745 628.786C770.745 628.786 770.918 629.219 771.359 629.068C771.359 629.068 771.532 629.5 771.974 629.349C771.974 629.349 772.146 629.782 772.588 629.631C772.588 629.631 772.76 630.064 773.202 629.913C773.202 629.913 773.374 630.346 773.816 630.195C773.816 630.195 773.988 630.628 774.43 630.477C774.43 630.477 774.602 630.91 775.044 630.759C775.044 630.759 775.216 631.192 775.658 631.041C775.658 631.041 775.83 631.474 776.272 631.323C776.272 631.323 776.444 631.756 776.886 631.605C776.886 631.605 777.058 632.038 777.5 631.887C777.5 631.887 777.672 632.32 778.114 632.169C778.114 632.169 778.286 632.601 778.728 632.451L778.901 632.883C779.073 633.316 779.073 633.316 779.515 633.165L779.687 633.598C779.859 634.031 779.859 634.031 779.859 634.031C780.032 634.464 780.032 634.464 780.032 634.464C780.204 634.897 780.204 634.897 780.204 634.897C780.376 635.33 780.376 635.33 780.376 635.33C780.549 635.763 780.549 635.763 780.549 635.763C780.721 636.195 780.721 636.195 780.721 636.195C780.893 636.628 780.893 636.628 780.893 636.628C781.066 637.061 781.066 637.061 781.066 637.061C781.238 637.494 781.238 637.494 781.238 637.494C781.41 637.927 781.41 637.927 781.41 637.927C781.583 638.36 781.583 638.36 781.583 638.36C781.755 638.793 781.755 638.793 781.755 638.793C781.927 639.226 781.927 639.226 781.927 639.226L782.1 639.658C782.272 640.091 782.272 640.091 782.272 640.091L782.444 640.524L782.617 640.957L782.789 641.39C782.961 641.823 782.961 641.823 783.403 641.672C783.403 641.672 783.575 642.105 784.017 641.954L775.398 640.473C775.398 640.473 775.226 640.04 774.784 640.191C774.784 640.191 774.612 639.758 774.17 639.909C774.17 639.909 774.17 639.909 773.998 639.477C773.998 639.477 773.998 639.477 773.826 639.044C773.826 639.044 773.826 639.044 773.653 638.611C773.653 638.611 773.653 638.611 773.481 638.178C773.481 638.178 773.481 638.178 773.309 637.745C773.309 637.745 773.309 637.745 773.136 637.312C773.136 637.312 773.136 637.312 772.964 636.879C772.964 636.879 772.964 636.879 772.792 636.446C772.792 636.446 772.792 636.446 772.619 636.014C772.619 636.014 772.619 636.014 772.447 635.581C772.447 635.581 772.447 635.581 772.275 635.148C772.275 635.148 772.275 635.148 772.102 634.715C772.102 634.715 772.102 634.715 771.93 634.282C771.93 634.282 771.93 634.282 771.758 633.849C771.758 633.849 771.758 633.849 771.585 633.416C771.585 633.416 771.585 633.416 771.413 632.983C771.413 632.983 771.413 632.983 771.241 632.551C771.241 632.551 771.241 632.551 771.068 632.118C771.068 632.118 771.068 632.118 770.454 631.836C770.454 631.836 770.454 631.836 770.282 631.403C770.282 631.403 770.282 631.403 769.668 631.121C769.668 631.121 769.668 631.121 769.054 630.839C769.054 630.839 769.054 630.839 768.44 630.557C768.44 630.557 768.44 630.557 767.826 630.275C767.826 630.275 767.826 630.275 767.212 629.993C767.212 629.993 767.212 629.993 766.598 629.711C766.598 629.711 766.598 629.711 765.984 629.43C765.984 629.43 765.984 629.43 765.369 629.148C765.369 629.148 765.369 629.148 764.755 628.866C764.755 628.866 764.755 628.866 764.141 628.584C764.141 628.584 764.141 628.584 763.527 628.302C763.527 628.302 763.527 628.302 762.913 628.02C762.913 628.02 762.913 628.02 762.299 627.738C762.299 627.738 762.299 627.738 761.685 627.456C761.685 627.456 761.685 627.456 761.071 627.174C761.071 627.174 761.071 627.174 760.457 626.892C759.057 625.896 757.828 625.332 756.428 624.335C756.428 624.335 756.428 624.335 755.814 624.053C755.814 624.053 755.814 624.053 755.2 623.771C755.2 623.771 755.2 623.771 754.586 623.489C754.586 623.489 754.586 623.489 753.972 623.207C753.972 623.207 753.972 623.207 753.358 622.925C753.358 622.925 753.358 622.925 752.744 622.644C752.744 622.644 752.744 622.644 752.13 622.362C752.13 622.362 752.13 622.362 751.516 622.08C751.516 622.08 751.516 622.08 750.901 621.798C750.901 621.798 750.901 621.798 750.287 621.516C750.287 621.516 750.287 621.516 749.673 621.234C749.673 621.234 749.673 621.234 749.059 620.952C749.059 620.952 749.059 620.952 748.445 620.67C748.445 620.67 748.445 620.67 747.831 620.388C747.831 620.388 747.831 620.388 747.389 620.539C747.389 620.539 747.389 620.539 746.948 620.69C746.948 620.69 746.948 620.69 746.506 620.841C746.064 620.992 746.064 620.992 745.45 620.71C745.623 621.143 745.623 621.143 745.45 620.71Z" fill="url(#paint17_linear_1203_4269)"/>
<path d="M753.683 622.68L745 621.186L745.445 621.033L753.683 622.68Z" fill="#9F9F9F"/>
<path d="M753.237 622.835L744.551 621.341L744.996 621.189L753.237 622.835C753.682 622.683 753.682 622.683 753.237 622.835Z" fill="#9F9F9F"/>
<path d="M753.064 622.408L744.385 620.915L744.83 620.762L753.064 622.408C753.064 622.408 753.238 622.845 753.064 622.408Z" fill="#9F9F9F"/>
<path d="M752.619 622.568L743.936 621.074L752.619 622.568Z" fill="#9F9F9F"/>
<path d="M715.533 580.075L707.067 578.629L728.588 627.132L737.054 628.578L715.533 580.075Z" fill="url(#paint18_linear_1203_4269)"/>
<path d="M731.859 573.113C730.79 572.979 730.343 573.133 729.448 573.442L729 573.596C728.553 573.75 728.106 573.904 727.658 574.059C727.211 574.213 727.211 574.213 726.764 574.367C726.316 574.521 726.316 574.521 725.869 574.675C725.421 574.83 725.421 574.83 724.974 574.984C724.527 575.138 724.527 575.138 724.079 575.292C723.632 575.446 723.632 575.446 723.184 575.601C722.737 575.755 722.737 575.755 722.29 575.909C721.842 576.063 721.842 576.063 721.395 576.217L720.948 576.372C720.5 576.526 720.5 576.526 720.053 576.68L719.605 576.834L719.158 576.988L718.711 577.143L718.263 577.297L717.816 577.451L717.368 577.605L716.921 577.759L716.474 577.914C716.474 577.914 716.026 578.068 716.201 578.51C716.201 578.51 716.201 578.51 715.753 578.664C715.753 578.664 715.753 578.664 715.306 578.818C715.306 578.818 715.306 578.818 714.859 578.972L706.129 577.461C706.129 577.461 706.129 577.461 706.577 577.306C706.577 577.306 707.024 577.152 706.85 576.71L707.297 576.556C707.297 576.556 707.297 576.556 707.744 576.402L708.192 576.248C708.192 576.248 708.192 576.248 708.639 576.093C708.639 576.093 708.639 576.093 709.087 575.939L709.534 575.785L709.981 575.631C709.981 575.631 709.981 575.631 710.429 575.477L710.876 575.322L711.323 575.168C711.323 575.168 711.323 575.168 711.771 575.014L712.218 574.86L712.666 574.706L713.113 574.551C713.56 574.397 713.56 574.397 714.008 574.243L714.455 574.089L714.903 573.935C715.35 573.78 715.35 573.78 715.797 573.626L716.245 573.472L716.692 573.318C717.14 573.164 717.14 573.164 717.587 573.009L718.034 572.855C718.034 572.855 718.034 572.855 718.482 572.701C718.929 572.547 719.376 572.393 719.824 572.238L720.271 572.084C721.166 571.776 721.788 572.064 722.683 571.755C723.13 571.601 723.305 572.043 723.752 571.889C723.752 571.889 724.199 571.735 724.374 572.177C724.996 572.465 725.443 572.311 726.513 572.444L735.242 573.956C734.62 573.668 734.173 573.822 733.103 573.689C733.103 573.689 732.656 573.843 732.481 573.401C732.754 572.804 732.307 572.959 731.859 573.113Z" fill="url(#paint19_linear_1203_4269)"/>
<path d="M782.442 641.786C749.363 543.453 717.466 577.388 715.614 579.002L737.495 627.807C737.495 627.807 737.934 627.657 737.763 627.226C737.763 627.226 738.202 627.076 738.03 626.645C742.881 622.536 742.881 622.536 742.881 622.536L743.32 622.385C743.758 622.235 744.197 622.085 744.636 621.934L745.075 621.784L745.514 621.634L745.953 621.483L746.392 621.333L746.831 621.183L747.27 621.032L747.709 620.882L748.148 620.732L748.587 620.581L749.026 620.431L749.465 620.281L749.904 620.13L750.343 619.98L750.781 619.83L751.22 619.679L751.659 619.529L752.098 619.379L752.537 619.228L752.976 619.078L753.415 618.928L753.854 618.777L754.293 618.627L754.732 618.477L755.171 618.326L755.61 618.176L756.049 618.026L756.488 617.875L756.927 617.725L757.366 617.575L757.804 617.424L758.243 617.274L758.682 617.124C758.682 617.124 759.121 616.973 759.292 617.404C759.292 617.404 759.731 617.254 759.903 617.685C759.903 617.685 759.903 617.685 760.513 617.965C760.513 617.965 760.952 617.815 761.123 618.246C761.123 618.246 761.123 618.246 761.733 618.526C761.733 618.526 761.733 618.526 762.343 618.807C762.343 618.807 762.343 618.807 762.953 619.088C762.953 619.088 762.953 619.088 763.563 619.368C763.563 619.368 763.563 619.368 764.173 619.649C764.173 619.649 764.173 619.649 764.784 619.929C764.784 619.929 764.784 619.929 765.394 620.21C765.394 620.21 765.394 620.21 766.004 620.491C766.004 620.491 766.004 620.491 766.614 620.771C766.614 620.771 766.614 620.771 767.224 621.052C768.444 621.613 769.836 622.605 771.227 623.597C771.227 623.597 771.398 624.028 771.837 623.878C771.837 623.878 772.009 624.309 772.447 624.158C772.447 624.158 772.619 624.589 773.058 624.439C773.058 624.439 773.229 624.87 773.668 624.72C773.668 624.72 773.839 625.151 774.278 625C774.278 625 774.449 625.431 774.888 625.281C774.888 625.281 775.059 625.712 775.498 625.561C775.498 625.561 775.669 625.992 776.108 625.842C776.108 625.842 776.279 626.273 776.718 626.123C776.718 626.123 776.89 626.553 777.328 626.403C777.328 626.403 777.5 626.834 777.939 626.684C777.939 626.684 778.11 627.115 778.549 626.964C778.549 626.964 778.72 627.395 779.159 627.245C779.159 627.245 779.33 627.676 779.769 627.526C779.769 627.526 779.94 627.956 780.379 627.806C780.379 627.806 780.55 628.237 780.989 628.087L781.16 628.518C781.332 628.949 781.332 628.949 781.771 628.798L781.942 629.229C782.113 629.66 782.113 629.66 782.113 629.66C782.284 630.091 782.284 630.091 782.284 630.091C782.455 630.522 782.455 630.522 782.455 630.522C782.626 630.953 782.626 630.953 782.626 630.953C782.798 631.384 782.798 631.384 782.798 631.384C782.969 631.815 782.969 631.815 782.969 631.815C783.14 632.246 783.14 632.246 783.14 632.246C783.311 632.677 783.311 632.677 783.311 632.677C783.482 633.108 783.482 633.108 783.482 633.108C783.654 633.538 783.654 633.538 783.654 633.538C783.825 633.969 783.825 633.969 783.825 633.969C783.996 634.4 783.996 634.4 783.996 634.4C784.167 634.831 784.167 634.831 784.167 634.831C784.338 635.262 784.338 635.262 784.338 635.262C784.51 635.693 784.51 635.693 784.51 635.693L784.681 636.124L784.852 636.555L785.023 636.986C785.194 637.417 785.194 637.417 785.633 637.267C782.442 641.786 782.442 641.786 782.442 641.786Z" fill="url(#paint20_linear_1203_4269)"/>
<path d="M724.823 683.899C724.823 683.899 790.532 832.533 779.823 915.743C779.823 915.743 669.473 779.546 658.953 706.568L724.823 683.899Z" fill="url(#paint21_linear_1203_4269)"/>
<path opacity="0.95" d="M725.311 347.802C692.315 264.815 595.035 221.995 510.928 255.195C435.749 284.358 397.824 365.589 423.14 441.874C435.466 477.921 459.123 507.143 488.861 526.429C489.548 528.158 490.947 529.152 492.885 528.98C507.41 537.759 523.186 544.636 539.869 548.748C551.229 557.136 559.253 564.702 559.253 564.702L576.095 607.06C584.688 628.671 607.702 642.4 631.055 639.319C645.332 637.38 661.472 633.821 677.906 627.215C688.331 623.157 697.97 618.386 706.113 613.635C726.029 601.91 734.533 577.885 725.769 555.842L714.942 528.612C703.333 509.506 708.16 492.632 712.647 483.732C737.754 444.696 744.043 394.914 725.311 347.802Z" fill="url(#paint22_linear_1203_4269)"/>
<path d="M707.232 734.853C680.608 743.962 650.846 729.968 640.655 704.343L628.738 674.376C632.437 676.071 657.958 689.542 686.899 678.654C714.238 668.807 723.402 644.948 725.028 641.432L736.946 671.399C746.865 697.61 733.857 725.744 707.232 734.853Z" fill="url(#paint23_linear_1203_4269)"/>
<path d="M666.769 630.76C703.427 618.2 727.315 593.339 720.124 575.231C712.933 557.122 677.386 552.625 640.727 565.185C604.069 577.745 580.181 602.607 587.372 620.715C594.563 638.823 630.11 643.32 666.769 630.76Z" fill="url(#paint24_linear_1203_4269)"/>
<path d="M664.339 624.642C694.356 614.357 713.948 594.079 708.099 579.35C702.25 564.621 673.174 561.018 643.157 571.303C613.14 581.588 593.548 601.866 599.397 616.595C605.246 631.325 634.321 634.927 664.339 624.642Z" fill="url(#paint25_linear_1203_4269)"/>
<path d="M698.022 710.75C661.635 723.198 620.333 704.271 606.17 668.658L589.762 627.398C594.867 630.092 629.808 648.236 669.842 633.552C707.214 619.779 720.172 587.715 722.439 582.006L738.847 623.265C752.566 659.03 734.408 698.301 698.022 710.75Z" fill="url(#paint26_linear_1203_4269)"/>
<path d="M598.048 649.524C598.048 649.524 632.27 671.836 674.784 657.168C717.299 642.501 731.856 603.36 731.856 603.36" stroke="url(#paint27_linear_1203_4269)" stroke-width="2.2598" stroke-miterlimit="10" stroke-linecap="round" stroke-linejoin="round"/>
<path d="M609.979 680.275C609.979 680.275 644.201 702.587 686.715 687.92C729.23 673.252 743.787 634.112 743.787 634.112" stroke="url(#paint28_linear_1203_4269)" stroke-width="2.2598" stroke-miterlimit="10" stroke-linecap="round" stroke-linejoin="round"/>
<path opacity="0.5" d="M582.472 438.387C578.287 427.692 571.07 420.482 566.771 421.978C562.041 423.623 561.95 433.376 566.134 444.071C569.147 451.771 573.975 457.868 577.726 459.965L635.977 608.839C636.646 610.55 639.036 611.663 640.755 611.065C642.475 610.467 643.525 608.157 642.856 606.446L584.605 457.572C586.013 453.68 585.652 446.515 582.472 438.387Z" fill="white"/>
<path opacity="0.5" d="M614.833 427.033C610.648 416.338 603.431 409.128 599.131 410.624C594.402 412.269 594.31 422.022 598.495 432.717C601.508 440.417 606.336 446.514 610.087 448.611L668.337 597.485C669.007 599.196 671.396 600.309 673.116 599.711C674.836 599.112 675.886 596.803 675.216 595.092L616.966 446.218C618.374 442.326 618.013 435.161 614.833 427.033Z" fill="white"/>
<path d="M797.904 712.616C796.541 709.176 794.74 705.886 793.548 702.876C792.355 699.866 790.725 697.006 789.265 694.576C787.805 692.146 786.782 689.566 785.322 687.136C783.862 684.706 783.01 682.556 781.721 680.556C780.431 678.556 779.141 676.557 777.852 674.557C776.562 672.557 775.443 670.987 774.324 669.417C773.204 667.848 772.085 666.278 770.966 664.708C769.846 663.138 768.897 661.999 767.778 660.429C766.659 658.859 765.71 657.719 764.761 656.579C763.812 655.44 762.863 654.3 761.914 653.16C760.965 652.02 760.016 650.881 759.067 649.741C758.119 648.601 757.34 647.891 756.561 647.182C755.783 646.472 754.834 645.332 754.055 644.623C753.277 643.913 752.498 643.203 751.55 642.063C750.771 641.354 749.992 640.644 749.214 639.934C748.435 639.225 747.657 638.515 746.878 637.805C745.929 636.665 744.713 636.106 743.934 635.396C742.377 633.977 740.991 632.988 739.434 631.568C738.047 630.579 736.49 629.159 735.103 628.17C733.716 627.181 732.33 626.191 730.943 625.202C730.164 624.492 729.119 624.363 728.34 623.653C727.732 623.373 726.953 622.664 726.345 622.384C725.737 622.104 724.958 621.395 724.35 621.115C723.742 620.835 723.134 620.556 722.355 619.846C721.747 619.566 721.139 619.286 720.531 619.007C719.923 618.727 719.315 618.447 718.706 618.168C718.098 617.888 717.49 617.608 716.882 617.329C716.274 617.049 715.666 616.769 715.057 616.49C714.449 616.21 713.841 615.93 713.403 616.081C712.795 615.801 712.357 615.951 712.187 615.521C711.579 615.242 711.579 615.242 711.141 615.392C710.703 615.542 710.533 615.112 710.533 615.112L705.062 621.388C705.062 621.388 705.499 621.238 705.67 621.668C706.108 621.518 706.278 621.948 706.716 621.797C707.324 622.077 707.762 621.927 707.932 622.357C708.54 622.636 708.978 622.486 709.586 622.766C710.194 623.045 710.803 623.325 711.411 623.605C712.019 623.884 712.627 624.164 713.235 624.444C713.843 624.723 714.452 625.003 715.06 625.283C715.668 625.563 716.276 625.842 716.884 626.122C717.492 626.402 718.101 626.681 718.879 627.391C719.487 627.671 720.095 627.95 720.874 628.66C721.482 628.94 722.261 629.649 722.869 629.929C723.647 630.639 724.256 630.918 725.472 631.478C726.859 632.467 728.245 633.457 729.632 634.446C731.019 635.435 732.405 636.425 733.962 637.844C735.349 638.834 736.906 640.253 738.463 641.672C739.242 642.382 740.629 643.372 741.407 644.081C742.186 644.791 742.964 645.501 743.743 646.21C744.521 646.92 745.3 647.63 746.078 648.339C746.857 649.049 747.635 649.759 748.584 650.899C749.363 651.608 750.312 652.748 751.09 653.458C751.869 654.168 752.818 655.307 753.596 656.017C754.545 657.157 755.494 658.297 756.443 659.436C757.392 660.576 758.341 661.716 759.29 662.856C760.239 663.995 761.358 665.565 762.307 666.705C763.426 668.275 764.375 669.414 765.494 670.984C766.614 672.554 767.733 674.124 768.852 675.693C769.972 677.263 771.261 679.263 772.381 680.833C773.67 682.833 774.96 684.832 776.25 686.832C777.539 688.832 778.999 691.262 779.851 693.412C781.311 695.842 782.333 698.422 783.793 700.852C785.424 703.712 786.446 706.292 788.077 709.152C789.269 712.162 791.07 715.452 792.433 718.892C793.285 721.043 794.137 723.193 794.989 725.343L800.46 719.067C799.608 716.917 798.756 714.767 797.904 712.616Z" fill="url(#paint29_linear_1203_4269)"/>
<path d="M705.02 621.479C707.716 622.016 757.538 633.687 794.802 725.344C787.223 725.021 787.223 725.021 786.616 724.741L786.446 724.312C786.276 723.882 786.276 723.882 786.276 723.882C786.276 723.882 786.276 723.882 786.106 723.452C785.935 723.023 785.935 723.023 785.935 723.023C785.765 722.593 785.765 722.593 785.765 722.593L785.595 722.163C785.425 721.734 785.425 721.734 785.425 721.734C785.425 721.734 785.425 721.734 785.255 721.304C785.085 720.874 785.085 720.874 785.085 720.874L784.915 720.444C784.745 720.015 784.745 720.015 784.745 720.015C784.575 719.585 784.575 719.585 784.575 719.585C784.405 719.155 784.405 719.155 784.405 719.155C784.235 718.726 784.235 718.726 784.235 718.726C784.065 718.296 784.065 718.296 784.065 718.296C783.895 717.866 783.895 717.866 783.895 717.866C783.725 717.436 783.725 717.436 783.725 717.436C783.555 717.007 783.555 717.007 783.555 717.007C783.385 716.577 783.385 716.577 783.385 716.577C783.215 716.147 783.215 716.147 783.215 716.147C783.045 715.718 783.045 715.718 783.045 715.718C782.875 715.288 782.875 715.288 782.875 715.288C782.705 714.858 782.705 714.858 782.705 714.858C782.535 714.428 782.535 714.428 782.535 714.428C782.365 713.999 782.365 713.999 782.365 713.999C782.194 713.569 782.194 713.569 782.194 713.569C782.024 713.139 782.024 713.139 782.024 713.139C781.854 712.71 781.854 712.71 781.854 712.71C781.684 712.28 781.684 712.28 781.684 712.28C781.514 711.85 781.514 711.85 781.077 712.001C780.907 711.571 780.907 711.571 780.907 711.571C780.737 711.141 780.737 711.141 780.737 711.141C780.567 710.711 780.567 710.711 780.13 710.862C779.96 710.432 779.96 710.432 779.522 710.582C779.352 710.153 779.352 710.153 778.915 710.303C778.745 709.873 778.745 709.873 778.308 710.024C778.138 709.594 778.138 709.594 777.701 709.744C777.531 709.315 777.53 709.315 777.093 709.465C776.923 709.035 776.923 709.035 776.486 709.186C776.316 708.756 776.316 708.756 775.879 708.906C775.709 708.477 775.709 708.477 775.271 708.627C775.101 708.197 775.101 708.197 774.664 708.348C774.494 707.918 774.494 707.918 774.057 708.068C773.887 707.639 773.887 707.639 773.45 707.789C769.053 702.954 764.826 698.55 760.162 694.295C760.162 694.295 759.992 693.866 759.555 694.016C759.555 694.016 759.385 693.586 758.947 693.737C758.947 693.737 758.777 693.307 758.34 693.457C758.17 693.028 758.17 693.028 757.733 693.178C757.733 693.178 757.563 692.748 757.126 692.899C757.126 692.899 756.956 692.469 756.518 692.619C756.348 692.19 756.348 692.19 755.911 692.34C755.911 692.34 755.741 691.91 755.304 692.061C755.304 692.061 755.134 691.631 754.696 691.781C754.696 691.781 754.526 691.351 754.089 691.502C754.089 691.502 753.919 691.072 753.482 691.222C753.482 691.222 753.312 690.793 752.875 690.943C752.875 690.943 752.705 690.513 752.267 690.664C752.267 690.664 752.097 690.234 751.66 690.384C751.66 690.384 751.49 689.955 751.053 690.105C751.053 690.105 750.883 689.675 750.445 689.826C750.445 689.826 750.275 689.396 749.838 689.546C749.838 689.546 749.668 689.117 749.231 689.267C749.231 689.267 749.061 688.837 748.624 688.988C748.624 688.988 748.454 688.558 748.016 688.708C748.016 688.708 747.846 688.279 747.409 688.429C747.409 688.429 747.239 687.999 746.802 688.15L746.194 687.87C746.194 687.87 746.024 687.441 745.587 687.591C745.587 687.591 745.417 687.161 744.98 687.312C744.98 687.312 744.81 686.882 744.373 687.032C744.373 687.032 744.203 686.602 743.765 686.753C743.765 686.753 743.595 686.323 743.158 686.473C740.996 684.776 738.567 683.659 736.745 682.821C736.745 682.821 736.745 682.821 736.138 682.541L735.531 682.262C735.531 682.262 735.093 682.412 734.923 681.982L734.316 681.703L733.709 681.424L733.101 681.144C728.753 680.199 728.753 680.199 728.583 679.769C728.146 679.919 728.146 679.919 727.976 679.49L705.02 621.479Z" fill="url(#paint30_linear_1203_4269)"/>
<path d="M636.532 768.867C635.169 765.427 634.244 761.836 633.051 758.826C631.859 755.816 631.104 752.655 630.519 749.924C629.935 747.194 628.913 744.614 628.328 741.883C627.744 739.152 626.892 737.002 626.478 734.702C626.064 732.401 625.65 730.101 625.235 727.8C624.821 725.5 624.578 723.629 624.334 721.759C624.09 719.888 623.846 718.018 623.603 716.147C623.359 714.277 623.286 712.836 623.042 710.966C622.798 709.095 622.725 707.655 622.652 706.214C622.578 704.774 622.505 703.333 622.432 701.893C622.358 700.452 622.285 699.012 622.212 697.571C622.138 696.131 622.235 695.12 622.332 694.11C622.429 693.1 622.356 691.659 622.453 690.649C622.55 689.638 622.647 688.628 622.574 687.187C622.671 686.177 622.768 685.167 622.865 684.156C622.962 683.146 623.059 682.135 623.156 681.125C623.083 679.684 623.617 678.524 623.714 677.513C623.908 675.492 624.273 673.901 624.467 671.881C624.831 670.29 625.025 668.269 625.39 666.678C625.754 665.087 626.119 663.496 626.483 661.906C626.58 660.895 627.285 660.164 627.383 659.154C627.65 658.574 627.747 657.563 628.014 656.983C628.282 656.402 628.379 655.392 628.646 654.812C628.914 654.231 629.181 653.651 629.278 652.64C629.546 652.06 629.813 651.48 630.08 650.899C630.348 650.319 630.615 649.738 630.883 649.158C631.15 648.578 631.417 647.997 631.685 647.417C631.952 646.836 632.22 646.256 632.487 645.676C632.754 645.095 633.022 644.515 633.46 644.364C633.727 643.784 634.165 643.634 633.994 643.204C634.262 642.623 634.262 642.623 634.7 642.473C635.137 642.323 634.967 641.893 634.967 641.893L643.505 643.357C643.505 643.357 643.067 643.507 643.238 643.937C642.8 644.088 642.97 644.518 642.532 644.668C642.265 645.249 641.827 645.399 641.998 645.829C641.73 646.409 641.292 646.56 641.025 647.14C640.758 647.721 640.49 648.301 640.223 648.881C639.955 649.462 639.688 650.042 639.421 650.623C639.153 651.203 638.886 651.783 638.618 652.364C638.351 652.944 638.083 653.525 637.816 654.105C637.549 654.685 637.281 655.266 637.184 656.276C636.917 656.857 636.649 657.437 636.552 658.447C636.285 659.028 636.188 660.038 635.921 660.619C635.823 661.629 635.556 662.209 635.021 663.37C634.657 664.961 634.292 666.552 633.928 668.143C633.563 669.733 633.199 671.324 633.005 673.345C632.641 674.936 632.446 676.957 632.252 678.978C632.155 679.988 631.791 681.579 631.694 682.589C631.597 683.6 631.5 684.61 631.403 685.621C631.306 686.631 631.209 687.642 631.112 688.652C631.015 689.662 630.918 690.673 630.991 692.113C630.894 693.124 630.967 694.564 630.87 695.575C630.773 696.585 630.847 698.026 630.749 699.036C630.823 700.476 630.896 701.917 630.97 703.357C631.043 704.798 631.116 706.238 631.19 707.679C631.263 709.119 631.507 710.99 631.58 712.43C631.824 714.301 631.897 715.741 632.141 717.612C632.384 719.482 632.628 721.353 632.872 723.223C633.116 725.094 633.53 727.394 633.773 729.265C634.188 731.565 634.602 733.866 635.016 736.166C635.43 738.467 636.014 741.197 636.866 743.348C637.451 746.078 638.473 748.658 639.057 751.389C639.812 754.55 640.834 757.13 641.589 760.29C642.782 763.301 643.707 766.891 645.07 770.332C645.922 772.482 646.774 774.632 647.626 776.782L639.088 775.318C638.236 773.167 637.384 771.017 636.532 768.867Z" fill="url(#paint31_linear_1203_4269)"/>
<path d="M643.596 643.331C641.92 645.372 612.164 684.407 647.679 776.665C653.218 771.831 653.218 771.831 653.485 771.251L653.315 770.822C653.145 770.392 653.145 770.392 653.145 770.392C653.145 770.392 653.145 770.392 652.975 769.962C652.805 769.532 652.805 769.532 652.805 769.532C652.635 769.103 652.635 769.103 652.635 769.103L652.465 768.673C652.295 768.243 652.295 768.243 652.295 768.243C652.295 768.243 652.295 768.243 652.124 767.814C651.954 767.384 651.954 767.384 651.954 767.384L651.784 766.954C651.614 766.524 651.614 766.524 651.614 766.524C651.444 766.095 651.444 766.095 651.444 766.095C651.274 765.665 651.274 765.665 651.274 765.665C651.104 765.235 651.104 765.235 651.104 765.235C650.934 764.806 650.934 764.806 650.934 764.806C650.764 764.376 650.764 764.376 650.764 764.376C650.594 763.946 650.594 763.946 650.594 763.946C650.424 763.517 650.424 763.516 650.424 763.516C650.254 763.087 650.254 763.087 650.254 763.087C650.084 762.657 650.084 762.657 650.084 762.657C649.914 762.227 649.914 762.227 649.914 762.227C649.744 761.798 649.744 761.798 649.744 761.798C649.574 761.368 649.574 761.368 649.574 761.368C649.404 760.938 649.404 760.938 649.404 760.938C649.234 760.509 649.234 760.509 649.234 760.509C649.064 760.079 649.064 760.079 649.064 760.079C648.894 759.649 648.894 759.649 648.894 759.649C648.724 759.219 648.724 759.219 648.724 759.219C648.554 758.79 648.554 758.79 648.554 758.79C648.383 758.36 648.383 758.36 648.383 758.36C648.213 757.93 648.213 757.93 648.213 757.93C648.043 757.501 648.043 757.501 648.043 757.501C647.873 757.071 647.873 757.071 648.311 756.921C648.141 756.491 648.141 756.491 648.578 756.34C648.408 755.911 648.408 755.911 648.845 755.76C648.675 755.331 648.675 755.331 649.112 755.18C648.942 754.751 648.942 754.751 649.379 754.6C649.209 754.171 649.209 754.171 649.647 754.02C649.477 753.59 649.477 753.591 649.914 753.44C649.744 753.01 649.744 753.01 650.181 752.86C650.011 752.43 650.011 752.43 650.448 752.28C650.278 751.85 650.278 751.85 650.715 751.7C650.545 751.27 650.545 751.27 650.983 751.12C650.813 750.69 650.812 750.69 651.25 750.54C651.225 744.202 651.371 738.294 651.954 732.235C651.954 732.235 651.784 731.805 652.221 731.655C652.221 731.655 652.051 731.225 652.488 731.075C652.488 731.075 652.318 730.645 652.755 730.495C652.585 730.065 652.585 730.065 653.023 729.915C653.023 729.915 652.853 729.485 653.29 729.335C653.29 729.335 653.12 728.905 653.557 728.755C653.387 728.325 653.387 728.325 653.824 728.175C653.824 728.175 653.654 727.745 654.091 727.594C654.091 727.594 653.921 727.165 654.359 727.014C654.359 727.014 654.189 726.585 654.626 726.434C654.626 726.434 654.456 726.005 654.893 725.854C654.893 725.854 654.723 725.425 655.16 725.274C655.16 725.274 654.99 724.845 655.427 724.694C655.427 724.694 655.257 724.264 655.695 724.114C655.695 724.114 655.525 723.684 655.962 723.534C655.962 723.534 655.792 723.104 656.229 722.954C656.229 722.954 656.059 722.524 656.496 722.374C656.496 722.374 656.326 721.944 656.763 721.794C656.763 721.794 656.593 721.364 657.031 721.214C657.031 721.214 656.861 720.784 657.298 720.634C657.298 720.634 657.128 720.204 657.565 720.054C657.565 720.054 657.395 719.624 657.832 719.474L658.099 718.894C658.099 718.894 657.929 718.464 658.367 718.313C658.367 718.313 658.197 717.884 658.634 717.733C658.634 717.733 658.464 717.304 658.901 717.153C658.901 717.153 658.731 716.724 659.168 716.573C659.168 716.573 658.998 716.144 659.435 715.993C659.897 713.394 660.966 711.073 661.767 709.333C661.767 709.333 661.767 709.333 662.034 708.753L662.302 708.173C662.302 708.173 662.739 708.023 662.569 707.593L662.836 707.013L663.103 706.433L663.37 705.853C666.018 702.501 666.018 702.501 665.848 702.072C666.285 701.921 666.285 701.921 666.115 701.492L643.596 643.331Z" fill="url(#paint32_linear_1203_4269)"/>
<path opacity="0.41" d="M470.252 394.01C477.423 372.838 489.909 349.848 511.183 331.244C515.634 327.259 514.645 319.715 508.663 317.326L491.431 309.424C487.738 307.731 482.694 308.963 480.457 312.191C471.951 324.952 454.008 355.719 452.899 389.597C453.072 390.031 452.801 390.616 452.974 391.05C453.153 400.349 467.256 402.916 470.252 394.01Z" fill="url(#paint33_linear_1203_4269)"/>
<path opacity="0.41" d="M464.104 421.933C463.983 425.412 463.938 430.339 464.58 436.996C465.148 442.204 460.711 446.178 455.168 446.109L452.004 445.718C446.902 445.498 443.073 440.914 443.118 435.986C443.508 431.924 444.264 426.262 445.829 418.851C447.101 414.486 451.44 411.529 456.003 412.915C460.836 413.718 463.88 417.589 464.104 421.933Z" fill="url(#paint34_linear_1203_4269)"/>
<defs>
<filter id="filter0_f_1203_4269" x="27.6853" y="0.666504" width="1222.9" height="1305.23" filterUnits="userSpaceOnUse" color-interpolation-filters="sRGB">
<feFlood flood-opacity="0" result="BackgroundImageFix"/>
<feBlend mode="normal" in="SourceGraphic" in2="BackgroundImageFix" result="shape"/>
<feGaussianBlur stdDeviation="125" result="effect1_foregroundBlur_1203_4269"/>
</filter>
<linearGradient id="paint0_linear_1203_4269" x1="888.993" y1="813.949" x2="923.438" y2="800.27" gradientUnits="userSpaceOnUse">
<stop stop-color="#FE5DB8"/>
<stop offset="1" stop-color="#FFAAAD"/>
</linearGradient>
<linearGradient id="paint1_linear_1203_4269" x1="540.669" y1="809.436" x2="575.113" y2="795.757" gradientUnits="userSpaceOnUse">
<stop stop-color="#FE5DB8"/>
<stop offset="1" stop-color="#FFAAAD"/>
</linearGradient>
<linearGradient id="paint2_linear_1203_4269" x1="551.781" y1="900.243" x2="586.226" y2="886.564" gradientUnits="userSpaceOnUse">
<stop stop-color="#FE5DB8"/>
<stop offset="1" stop-color="#FFAAAD"/>
</linearGradient>
<linearGradient id="paint3_linear_1203_4269" x1="570.263" y1="858.52" x2="765.226" y2="781.126" gradientUnits="userSpaceOnUse">
<stop offset="0.00529101" stop-color="#FE40AB"/>
<stop offset="1" stop-color="#FF8287"/>
</linearGradient>
<linearGradient id="paint4_linear_1203_4269" x1="666.452" y1="806.594" x2="856.62" y2="731.104" gradientUnits="userSpaceOnUse">
<stop offset="0.00529101" stop-color="#FE40AB"/>
<stop offset="1" stop-color="#FF8287"/>
</linearGradient>
<linearGradient id="paint5_linear_1203_4269" x1="599.495" y1="897.231" x2="677.952" y2="866.073" gradientUnits="userSpaceOnUse">
<stop stop-color="#FE5DB8"/>
<stop offset="1" stop-color="#FFAAAD"/>
</linearGradient>
<linearGradient id="paint6_linear_1203_4269" x1="755.456" y1="931.859" x2="727.409" y2="827.215" gradientUnits="userSpaceOnUse">
<stop stop-color="#FE5DB8"/>
<stop offset="1" stop-color="#FFAAAD"/>
</linearGradient>
<linearGradient id="paint7_linear_1203_4269" x1="844.372" y1="889.243" x2="909.434" y2="863.405" gradientUnits="userSpaceOnUse">
<stop stop-color="#FE5DB8"/>
<stop offset="1" stop-color="#FFAAAD"/>
</linearGradient>
<linearGradient id="paint8_linear_1203_4269" x1="761.799" y1="731.848" x2="796.244" y2="718.169" gradientUnits="userSpaceOnUse">
<stop offset="0.00529101" stop-color="#FE40AB"/>
<stop offset="1" stop-color="#FF8287"/>
</linearGradient>
<linearGradient id="paint9_linear_1203_4269" x1="521.695" y1="894.73" x2="569.535" y2="875.731" gradientUnits="userSpaceOnUse">
<stop stop-color="#FE5DB8"/>
<stop offset="1" stop-color="#FFAAAD"/>
</linearGradient>
<linearGradient id="paint10_linear_1203_4269" x1="788.072" y1="847.152" x2="822.517" y2="833.473" gradientUnits="userSpaceOnUse">
<stop stop-color="#FE5DB8"/>
<stop offset="1" stop-color="#FFAAAD"/>
</linearGradient>
<linearGradient id="paint11_linear_1203_4269" x1="775.987" y1="786.888" x2="841.049" y2="761.05" gradientUnits="userSpaceOnUse">
<stop stop-color="#FE5DB8"/>
<stop offset="1" stop-color="#FFAAAD"/>
</linearGradient>
<linearGradient id="paint12_linear_1203_4269" x1="782.411" y1="929.047" x2="717.608" y2="735.291" gradientUnits="userSpaceOnUse">
<stop stop-color="#FBEF4F" stop-opacity="0.8"/>
<stop offset="0.1382" stop-color="#FCF172" stop-opacity="0.6895"/>
<stop offset="0.3228" stop-color="#FDF399" stop-opacity="0.5418"/>
<stop offset="0.5049" stop-color="#FDF4B9" stop-opacity="0.3961"/>
<stop offset="0.6813" stop-color="#FEF5CF" stop-opacity="0.255"/>
<stop offset="0.8493" stop-color="#FEF6DC" stop-opacity="0.1206"/>
<stop offset="1" stop-color="#FEF6E1" stop-opacity="0"/>
</linearGradient>
<linearGradient id="paint13_linear_1203_4269" x1="574.76" y1="699.744" x2="599.652" y2="689.835" gradientUnits="userSpaceOnUse">
<stop stop-color="#1D1549"/>
<stop offset="0.8968" stop-color="#412FA3"/>
</linearGradient>
<linearGradient id="paint14_linear_1203_4269" x1="595.816" y1="649.978" x2="604.781" y2="646.457" gradientUnits="userSpaceOnUse">
<stop stop-color="#1D1549"/>
<stop offset="0.8968" stop-color="#412FA3"/>
</linearGradient>
<linearGradient id="paint15_linear_1203_4269" x1="567.941" y1="630.363" x2="594.532" y2="619.864" gradientUnits="userSpaceOnUse">
<stop stop-color="#1D1549"/>
<stop offset="0.8968" stop-color="#412FA3"/>
</linearGradient>
<linearGradient id="paint16_linear_1203_4269" x1="565.193" y1="675.912" x2="601.94" y2="661.314" gradientUnits="userSpaceOnUse">
<stop stop-color="#0F0A26"/>
<stop offset="0.8968" stop-color="#2C1F6E"/>
</linearGradient>
<linearGradient id="paint17_linear_1203_4269" x1="776.585" y1="626.96" x2="751.693" y2="636.87" gradientUnits="userSpaceOnUse">
<stop stop-color="#1D1549"/>
<stop offset="0.8968" stop-color="#412FA3"/>
</linearGradient>
<linearGradient id="paint18_linear_1203_4269" x1="726.532" y1="601.961" x2="717.566" y2="605.483" gradientUnits="userSpaceOnUse">
<stop stop-color="#1D1549"/>
<stop offset="0.8968" stop-color="#412FA3"/>
</linearGradient>
<linearGradient id="paint19_linear_1203_4269" x1="734.356" y1="569.943" x2="707.765" y2="580.442" gradientUnits="userSpaceOnUse">
<stop stop-color="#1D1549"/>
<stop offset="0.8968" stop-color="#412FA3"/>
</linearGradient>
<linearGradient id="paint20_linear_1203_4269" x1="767.599" y1="602.98" x2="730.852" y2="617.578" gradientUnits="userSpaceOnUse">
<stop stop-color="#0F0A26"/>
<stop offset="0.8968" stop-color="#2C1F6E"/>
</linearGradient>
<linearGradient id="paint21_linear_1203_4269" x1="772.522" y1="903.33" x2="717.11" y2="742.32" gradientUnits="userSpaceOnUse">
<stop stop-color="#FEF6E1"/>
<stop offset="0.6111" stop-color="#FBEF4F"/>
<stop offset="1" stop-color="#FF7C3B"/>
</linearGradient>
<linearGradient id="paint22_linear_1203_4269" x1="443.436" y1="492.952" x2="736.838" y2="376.293" gradientUnits="userSpaceOnUse">
<stop stop-color="#B32A98"/>
<stop offset="0.2169" stop-color="#B62E99"/>
<stop offset="0.413" stop-color="#BE399B"/>
<stop offset="0.601" stop-color="#CC4BA0"/>
<stop offset="0.784" stop-color="#E065A6"/>
<stop offset="0.9619" stop-color="#F986AE"/>
<stop offset="1" stop-color="#FF8EB0"/>
</linearGradient>
<linearGradient id="paint23_linear_1203_4269" x1="643.66" y1="712.893" x2="738.087" y2="675.341" gradientUnits="userSpaceOnUse">
<stop stop-color="#0F0A26"/>
<stop offset="0.8968" stop-color="#2C1F6E"/>
</linearGradient>
<linearGradient id="paint24_linear_1203_4269" x1="638.832" y1="627.065" x2="672.58" y2="559.185" gradientUnits="userSpaceOnUse">
<stop stop-color="#B32A98"/>
<stop offset="0.2169" stop-color="#B62E99"/>
<stop offset="0.413" stop-color="#BE399B"/>
<stop offset="0.601" stop-color="#CC4BA0"/>
<stop offset="0.784" stop-color="#E065A6"/>
<stop offset="0.9619" stop-color="#F986AE"/>
<stop offset="1" stop-color="#FF8EB0"/>
</linearGradient>
<linearGradient id="paint25_linear_1203_4269" x1="641.503" y1="621.749" x2="669.117" y2="566.207" gradientUnits="userSpaceOnUse">
<stop stop-color="#B32A98"/>
<stop offset="0.2169" stop-color="#B62E99"/>
<stop offset="0.413" stop-color="#BE399B"/>
<stop offset="0.601" stop-color="#CC4BA0"/>
<stop offset="0.784" stop-color="#E065A6"/>
<stop offset="0.9619" stop-color="#F986AE"/>
<stop offset="1" stop-color="#FF8EB0"/>
</linearGradient>
<linearGradient id="paint26_linear_1203_4269" x1="610.633" y1="680.463" x2="740.47" y2="628.829" gradientUnits="userSpaceOnUse">
<stop stop-color="#1D1549"/>
<stop offset="0.8968" stop-color="#412FA3"/>
</linearGradient>
<linearGradient id="paint27_linear_1203_4269" x1="639.645" y1="676.496" x2="689.529" y2="576.687" gradientUnits="userSpaceOnUse">
<stop stop-color="#3D096D"/>
<stop offset="1" stop-color="#181743"/>
</linearGradient>
<linearGradient id="paint28_linear_1203_4269" x1="651.631" y1="707.385" x2="701.515" y2="607.577" gradientUnits="userSpaceOnUse">
<stop stop-color="#3D096D"/>
<stop offset="1" stop-color="#181743"/>
</linearGradient>
<linearGradient id="paint29_linear_1203_4269" x1="728.021" y1="678.822" x2="777.024" y2="659.407" gradientUnits="userSpaceOnUse">
<stop stop-color="#1D1549"/>
<stop offset="0.8968" stop-color="#412FA3"/>
</linearGradient>
<linearGradient id="paint30_linear_1203_4269" x1="728.721" y1="680.857" x2="770.839" y2="664.191" gradientUnits="userSpaceOnUse">
<stop stop-color="#0F0A26"/>
<stop offset="0.8968" stop-color="#2C1F6E"/>
</linearGradient>
<linearGradient id="paint31_linear_1203_4269" x1="666.208" y1="700.878" x2="617.206" y2="720.293" gradientUnits="userSpaceOnUse">
<stop stop-color="#1D1549"/>
<stop offset="0.8968" stop-color="#412FA3"/>
</linearGradient>
<linearGradient id="paint32_linear_1203_4269" x1="667.043" y1="702.797" x2="624.925" y2="719.464" gradientUnits="userSpaceOnUse">
<stop stop-color="#0F0A26"/>
<stop offset="0.8968" stop-color="#2C1F6E"/>
</linearGradient>
<linearGradient id="paint33_linear_1203_4269" x1="485.645" y1="359.224" x2="460.633" y2="340.179" gradientUnits="userSpaceOnUse">
<stop stop-color="white" stop-opacity="0.8"/>
<stop offset="0.6223" stop-color="#FEFAEE" stop-opacity="0.3209"/>
<stop offset="1" stop-color="#FEF6E1" stop-opacity="0.03"/>
</linearGradient>
<linearGradient id="paint34_linear_1203_4269" x1="470.268" y1="428.133" x2="443.847" y2="430.921" gradientUnits="userSpaceOnUse">
<stop stop-color="white" stop-opacity="0.8"/>
<stop offset="0.6223" stop-color="#FEFAEE" stop-opacity="0.3209"/>
<stop offset="1" stop-color="#FEF6E1" stop-opacity="0.03"/>
</linearGradient>
</defs>
</svg>
